<?xml version="1.0" encoding="UTF-8"?>
<svg xmlns="http://www.w3.org/2000/svg" width="1013" height="16" viewBox="0 0 1013 16" fill="none">
  <g clip-path="url(#clip0_26_198)">
    <path d="M4.37573 11.2557C7.51231 12.2503 12.8949 12.31 18.0063 12.479C16.2294 12.0284 14.0846 11.6848 11.7272 11.4733C9.36979 11.2617 6.85872 11.1873 4.37573 11.2557Z" fill="#EFBA87"></path>
    <path d="M265.525 15.3037L266.3 13.7124C278.42 13.7124 269.862 15.5425 281.053 15.1447C285.429 12.8869 299.679 15.3734 303.552 14.1501C303.552 14.3291 308.934 14.3987 308.586 15.1447C310.251 13.9114 314.239 14.8563 317.686 14.5479C318.963 14.1998 316.756 14.1798 315.827 13.8118L323.765 13.3742C326.863 13.7721 327.637 14.4882 324.269 14.6275C344.986 15.0651 444.311 16.2387 466.731 15.6221C463.866 14.6971 456.973 15.3237 454.379 13.8715C460.264 13.056 463.053 14.1501 465.647 13.2947C467.893 15.463 478.619 13.8119 483.073 16.01L484.776 14.7866L487.719 15.5326C513.664 14.2595 493.644 14.9059 516.646 15.2043C529.928 15.0153 536.278 13.3046 543.752 13.9312C542.668 13.9312 539.88 13.1753 543.171 12.857C543.752 13.9312 552.348 12.0813 554.014 13.1754C557.421 13.0361 568.341 13.1753 564.662 11.7032C566.521 12.4392 576.279 12.6979 570.471 13.3742C573.387 13.5429 576.422 13.5223 579.3 13.3145L575.079 12.8968C586.193 12.688 592.272 13.8318 599.513 12.499L595.409 11.9122C602.03 11.8127 607.606 11.7033 610.24 13.1654L603.386 13.6129C612.481 13.7036 621.57 13.3941 630.26 12.6978H626.968C638.585 11.2457 699.961 10.0422 710.765 8.21213L705.77 7.08834L715.063 6.09372C713.979 6.09372 710.572 9.76379 709.681 9.39579C729.546 9.29632 832.976 8.4012 851.331 9.177C858.765 9.8036 852.686 10.9772 852.608 11.1662C861.631 10.7385 856.481 9.96276 864.225 10.0622C866.316 10.2611 863.799 10.9474 862.638 11.0568C865.968 10.9275 869.105 11.3154 869.337 10.7883C865.155 10.3805 866.936 8.97808 865.155 8.06304L875.029 8.18239L874.564 9.06761C876.772 9.06761 880.141 6.65062 889.821 7.12804C906.201 7.50599 923.937 7.19769 940.355 7.40656C940.123 7.9337 936.483 8.25201 933.192 8.56034C935.399 8.56034 938.768 8.45095 940.936 8.82891C937.064 7.89397 947.829 8.2023 944.809 7.8343C956.851 5.66604 972.418 7.64528 983.067 6.17325C983.996 4.18402 1005.8 -27.3054 1005.8 -29.6328C1008.42 -29.6681 1011.05 -29.577 1013.54 -29.3642C1012.69 -29.9013 1006.22 -30.1599 1002.78 -29.8516L1002.2 -28.6083C994.258 -28.1707 1000.34 -29.3444 992.593 -29.2648C992.167 -30.2594 999.292 -30.4981 1005.57 -30.5975C999.912 -30.7169 994.297 -31.4529 991.973 -30.3389C986.668 -30.7666 992.593 -31.5823 986.204 -32.0199C981.634 -31.7215 975.632 -30.7269 970.405 -31.3237V-31.5027C957.665 -32.557 951.043 -29.961 939.426 -31.0054L940.665 -31.3435C936.56 -31.9303 928.506 -31.1347 921.071 -31.7613C923.201 -31.5624 924.943 -30.8263 920.568 -30.7069C912.049 -31.3435 906.24 -30.707 900.006 -31.4927L894.042 -30.4981C864.38 -30.697 747.204 -29.2847 717.426 -29.1255L718.587 -29.2847C673.165 -28.7874 579.997 -28.857 533.064 -27.4944C525.784 -28.489 515.794 -28.2403 508.204 -28.489C512.425 -28.0812 510.992 -27.385 507.701 -27.4248C484.467 -27.5441 506.152 -26.7485 482.801 -26.3307C455.966 -25.4256 353.156 -26.46 329.303 -27.3254C316.485 -25.8832 300.492 -26.9772 287.946 -26.0622L289.224 -26.4003C275.71 -25.8533 199.425 -27.196 183.781 -26.6788L185.872 -26.47C172.202 -25.5749 174.061 -27.1562 163.296 -27.6436C164.729 -26.0224 153.034 -25.1073 148.542 -24.9879L148.736 -25.3361C141.998 -25.0676 126.741 -23.6552 115.628 -23.4463L116.054 -24.3316C106.799 -23.3369 89.3734 -23.7745 82.713 -23.6751C67.456 -24.0431 43.9896 -25.5847 23.5825 -24.421L10.4166 -26.9474L8.48044 -26.6888C8.48044 -26.6888 -12.7011 3.81605 14.2115 10.3109L13.7856 11.196L19.0906 11.0866C25.48 11.5143 28.4229 10.4898 27.997 11.3751L19.2455 11.2657C25.6736 11.5243 21.1817 11.9917 18.7421 12.489C21.2884 12.5431 23.785 12.7009 26.1382 12.9565C27.4161 12.6183 25.2089 12.5885 24.2021 12.3995C27.6484 12.0813 32.4888 11.2557 36.671 11.6635C43.2539 11.7431 37.0969 13.0957 44.7641 13.1852C85.1912 13.8715 124.34 14.896 165.193 14.697C166.123 15.065 165.193 15.0551 163.838 15.2142C176.152 14.8363 187.072 14.9755 198.302 14.5777C200.439 14.8679 202.152 15.3287 203.181 15.8906C200.78 15.2342 264.519 15.1147 265.525 15.3037Z" fill="#EFBA87"></path>
  </g>
  <defs>
    <clipPath id="clip0_26_198">
      <rect width="1013" height="16" fill="white"></rect>
    </clipPath>
  </defs>
</svg>
