<?xml version="1.0" encoding="UTF-8"?>
<svg xmlns="http://www.w3.org/2000/svg" width="51" height="67" viewBox="0 0 51 67" fill="none">
  <path d="M9.5 19L1 13.5M13.5 14.5L7.5 1M20 13L20.5 3" stroke="black" stroke-width="2" stroke-linecap="round" stroke-linejoin="round"></path>
  <path d="M37 20.5L30 44.5M27.5 18L22 40.5M17.5 24L14 36.5M17.7192 63.8426C14.4716 63.0477 11.5374 61.2571 9.31112 58.7099C6.1839 54.4996 5.20204 49.0183 6.66445 43.9462C8.39776 35.4565 10.5213 26.9222 10.5442 26.833L10.5483 26.816C10.8618 25.6736 11.6059 24.7034 12.6169 24.121C13.6267 23.5387 14.8224 23.3899 15.9402 23.7077C16.4706 23.8511 16.9698 24.0924 17.4141 24.4207L18.4136 20.2465C18.4136 20.2465 18.4188 20.2264 18.4219 20.2147C18.7634 18.9767 19.5688 17.9267 20.6648 17.2966C21.7598 16.6664 23.0551 16.5059 24.2653 16.8513C25.4983 17.1861 26.5529 18.0075 27.1974 19.135L27.2067 19.101C27.5472 17.8353 28.3692 16.7631 29.4881 16.1234C30.6069 15.4837 31.9292 15.3285 33.1602 15.6941C34.5022 16.0841 35.6335 17.0118 36.2999 18.2657C36.741 19.1562 36.8873 20.169 36.714 21.1519C37.6294 20.8353 38.6175 20.8045 39.5506 21.0648C39.6855 21.102 39.8308 21.1424 39.9471 21.1923C41.1573 21.6312 42.1433 22.5494 42.6861 23.7406C43.2123 24.8809 43.2684 26.1901 42.8418 27.3728L36.6216 48.0184L40.1017 45.4573C40.1017 45.4573 42.9539 42.6636 46.2783 43.3788C47.1585 43.5849 47.9659 44.0365 48.6105 44.6848C49.255 45.333 49.7107 46.1513 49.9276 47.0492C50.0781 47.894 49.993 48.7665 49.6816 49.5635C49.3702 50.3616 48.8461 51.0534 48.1683 51.5602L48.1642 51.5751L36.5967 60.8161C28.9826 66.9116 24.7344 65.7458 20.2455 64.5131L17.7192 63.8426Z" stroke="black" stroke-width="2" stroke-linecap="round" stroke-linejoin="round"></path>
</svg>
