<?xml version="1.0" encoding="UTF-8"?>
<svg xmlns="http://www.w3.org/2000/svg" width="69" height="45" viewBox="0 0 69 45" fill="none">
  <g clip-path="url(#clip0_190_73)">
    <path d="M44.4656 7.73061H47.8326C52.3887 7.73061 56.9447 7.73061 61.5126 7.73061C61.8553 7.6928 62.2001 7.78016 62.485 7.97698C62.7699 8.1738 62.9761 8.46717 63.0666 8.80431C64.9267 13.3735 66.8456 17.9069 68.7175 22.4642C68.8844 22.8603 68.9724 23.2861 68.9765 23.7168C68.9765 27.2958 68.9765 30.8748 68.9765 34.4538C68.9765 35.5514 68.8234 35.7065 67.6932 35.7065H62.7487C63.0079 37.0772 62.9013 38.4933 62.4397 39.8083C61.9782 41.1233 61.1785 42.2896 60.1234 43.1866C59.3886 43.836 58.533 44.33 57.607 44.6394C56.681 44.9487 55.7033 45.0673 54.7315 44.988C53.6373 44.9384 52.5676 44.6442 51.5988 44.1265C50.63 43.6088 49.7861 42.8805 49.1276 41.9936C48.4551 41.1206 47.9722 40.1136 47.7105 39.0383C47.4487 37.9631 47.4141 36.8439 47.609 35.7542H23.6514C23.9045 37.117 23.7935 38.5236 23.3298 39.8283C22.8662 41.1329 22.0667 42.2883 21.0143 43.1747C20.2161 43.8804 19.277 44.4034 18.2612 44.7081C17.2454 45.0128 16.1767 45.092 15.128 44.9403C14.0863 44.8057 13.0827 44.4569 12.1787 43.9152C11.2747 43.3735 10.4895 42.6505 9.8711 41.7904C9.2527 40.9302 8.8142 39.9512 8.58246 38.9132C8.35073 37.8753 8.33066 36.8003 8.52347 35.7542C8.24093 35.7542 7.95838 35.7542 7.67584 35.7542H1.20083C0.141287 35.7542 0.0235596 35.5872 0.0235596 34.5612V1.18104C0.0235596 0.119267 0.141287 -0.0119629 1.20083 -0.0119629H43.2648C44.3126 -0.0119629 44.4421 0.131197 44.4421 1.18104L44.4656 7.73061ZM1.54224 29.3836H42.8999V6.17971H41.7226C32.9244 6.17971 24.1263 6.17971 15.3281 6.17971C14.7042 6.17971 13.7741 6.43024 13.7977 5.3804C13.8212 4.33056 14.7395 4.61688 15.3752 4.61688H42.8999V1.59859H1.54224V29.3836ZM67.4696 34.1556V33.1654C67.4696 30.5527 67.3636 27.9162 67.4696 25.3035C67.5755 22.6908 66.0333 20.782 65.2563 18.5153C65.1268 19.9469 65.1386 21.3428 65.1268 22.7505C65.1268 23.8839 64.9384 24.0747 63.8082 24.0747H51.8825C50.764 24.0747 50.5992 23.9077 50.5992 22.7266V9.36503H44.5127V34.0959C45.69 34.0959 46.7613 34.0959 47.8562 34.0959C47.9648 34.0705 48.067 34.0223 48.1562 33.9545C48.2454 33.8867 48.3197 33.8008 48.3742 33.7022C48.9952 32.4151 49.9674 31.3353 51.1755 30.591C52.3837 29.8467 53.7771 29.4691 55.1906 29.5029C56.6029 29.4685 57.9958 29.8417 59.2068 30.5788C60.4178 31.316 61.3971 32.3868 62.0306 33.6665C62.1034 33.7794 62.1985 33.8759 62.31 33.9498C62.4214 34.0237 62.5467 34.0735 62.6781 34.0959C64.2438 34.0959 65.8096 34.0959 67.5049 34.0959L67.4696 34.1556ZM52.165 22.4522H59.7702V20.9729C59.7702 20.4838 59.7702 19.9947 59.7702 19.5055C59.7585 19.176 59.8143 18.8476 59.9341 18.541C60.0539 18.2344 60.2351 17.9563 60.4663 17.7243C60.6975 17.4922 60.9737 17.3113 61.2773 17.1928C61.581 17.0744 61.9056 17.021 62.2307 17.036C63.0548 17.036 63.8789 17.036 64.7501 17.036C64.7264 16.9187 64.6949 16.8031 64.6559 16.6901C63.7023 14.3995 62.7487 12.1208 61.8186 9.81835C61.6303 9.32922 61.3124 9.28151 60.8768 9.28151H52.8714C52.6359 9.28151 52.4122 9.28151 52.165 9.34116V22.4522ZM49.057 37.2693C49.0547 38.5025 49.4137 39.7086 50.0886 40.7348C50.7635 41.761 51.7239 42.561 52.8479 43.0335C53.972 43.506 55.2092 43.6296 56.4027 43.3887C57.5962 43.1478 58.6923 42.5533 59.552 41.6805C60.4116 40.8076 60.9962 39.6958 61.2317 38.4859C61.4671 37.276 61.3427 36.0225 60.8743 34.8843C60.4059 33.7461 59.6146 32.7744 58.6006 32.0925C57.5867 31.4106 56.3958 31.0491 55.1788 31.0538C53.5621 31.0663 52.0152 31.7226 50.872 32.8811C49.7288 34.0395 49.0811 35.6072 49.0688 37.2455L49.057 37.2693ZM22.1916 37.2693C22.1979 35.6238 21.5613 34.0427 20.4209 32.8714C19.2804 31.7001 17.7288 31.0337 16.1051 31.018C14.4782 31.0148 12.9162 31.6642 11.7603 32.8244C10.6044 33.9845 9.94864 35.5611 9.9362 37.2097C9.92355 38.8416 10.5472 40.4126 11.6716 41.581C12.7959 42.7495 14.3301 43.4208 15.9403 43.4491C16.7541 43.4681 17.5634 43.3225 18.321 43.0208C19.0785 42.719 19.7691 42.2672 20.3523 41.6918C20.9355 41.1164 21.3996 40.4289 21.7174 39.6695C22.0353 38.9101 22.2005 38.0942 22.2034 37.2693H22.1916ZM20.9437 31.0299C21.5794 31.8889 22.2505 32.6643 22.7803 33.5233C22.8729 33.726 23.0264 33.894 23.2187 34.0032C23.4111 34.1125 23.6325 34.1574 23.8516 34.1317H42.1582C42.3936 34.1317 42.6291 34.1317 42.8528 34.1317V31.0776L20.9437 31.0299ZM11.1488 31.0299H1.54224V34.0959C3.95565 34.0959 6.25134 34.0959 8.60588 34.0959C8.71571 34.0814 8.82146 34.0443 8.91661 33.9869C9.01176 33.9294 9.09432 33.8529 9.1592 33.7619C9.9362 32.9029 10.5131 31.9843 11.1135 31.0657L11.1488 31.0299ZM61.3595 22.4045H63.5846V18.5869C63.0958 18.5264 62.6017 18.5264 62.113 18.5869C61.8186 18.6585 61.4066 19.0164 61.3831 19.2789C61.3124 20.3526 61.3713 21.3785 61.3713 22.4403L61.3595 22.4045Z" fill="black"></path>
    <path d="M55.1553 40.3352C54.3517 40.3289 53.5834 40.0002 53.0186 39.4211C52.4537 38.842 52.1383 38.0596 52.1414 37.2453C52.1155 36.821 52.1756 36.3958 52.3179 35.9959C52.4603 35.596 52.682 35.2299 52.9693 34.9202C53.2566 34.6104 53.6035 34.3635 53.9886 34.1948C54.3736 34.026 54.7887 33.939 55.2082 33.939C55.6278 33.939 56.0428 34.026 56.4279 34.1948C56.813 34.3635 57.1598 34.6104 57.4472 34.9202C57.7345 35.2299 57.9562 35.596 58.0985 35.9959C58.2409 36.3958 58.301 36.821 58.275 37.2453C58.2626 38.0733 57.9277 38.8628 57.3433 39.4416C56.7589 40.0204 55.9724 40.3416 55.1553 40.3352ZM56.6975 37.2692C56.7038 37.0714 56.6711 36.8743 56.6014 36.6894C56.5318 36.5045 56.4265 36.3355 56.2917 36.1922C56.1569 36.049 55.9954 35.9344 55.8164 35.8551C55.6375 35.7757 55.4447 35.7333 55.2494 35.7302C55.0427 35.7116 54.8345 35.7368 54.6379 35.8041C54.4413 35.8715 54.2607 35.9796 54.1076 36.1216C53.9545 36.2635 53.8323 36.4362 53.7486 36.6287C53.665 36.8211 53.6218 37.0291 53.6218 37.2394C53.6218 37.4497 53.665 37.6577 53.7486 37.8501C53.8323 38.0426 53.9545 38.2153 54.1076 38.3572C54.2607 38.4992 54.4413 38.6073 54.6379 38.6746C54.8345 38.742 55.0427 38.7672 55.2494 38.7485C55.6336 38.7423 56.0001 38.5841 56.2707 38.3077C56.5413 38.0312 56.6945 37.6585 56.6975 37.2692Z" fill="black"></path>
    <path d="M19.1425 37.2335C19.144 37.6434 19.0657 38.0496 18.912 38.4288C18.7582 38.8079 18.5322 39.1526 18.2467 39.443C17.9612 39.7334 17.6219 39.9638 17.2484 40.121C16.8748 40.2783 16.4743 40.3592 16.0698 40.3592C15.2845 40.3393 14.5355 40.0199 13.9724 39.4648C13.4094 38.9097 13.0737 38.1597 13.0324 37.3648C13.023 36.9449 13.0954 36.5272 13.2453 36.1357C13.3953 35.7441 13.6199 35.3864 13.9063 35.0828C14.1928 34.7792 14.5354 34.5358 14.9147 34.3665C15.294 34.1972 15.7025 34.1052 16.1169 34.0959C16.9257 34.1147 17.6953 34.4535 18.2607 35.0398C18.8262 35.6262 19.1427 36.4137 19.1425 37.2335ZM16.1404 38.7725C16.5302 38.7462 16.8965 38.5742 17.1684 38.2899C17.4402 38.0056 17.5983 37.6292 17.612 37.2335C17.5911 36.8251 17.4177 36.4401 17.1269 36.1565C16.8361 35.8729 16.4498 35.712 16.0462 35.7065C15.6672 35.7391 15.3138 35.9135 15.0548 36.1959C14.7958 36.4782 14.6498 36.8481 14.6453 37.2335C14.6512 37.6358 14.8099 38.0202 15.0883 38.3068C15.3668 38.5935 15.7437 38.7603 16.1404 38.7725Z" fill="black"></path>
    <path d="M30.5267 20.0781L26.2179 18.9925L29.4083 15.8668L25.1466 17.0956L26.3591 12.7889L23.2865 16.01L22.2151 11.6555L21.1321 16.01L18.0594 12.7889L19.272 17.0956L15.0102 15.8668L18.2006 18.9925L13.9036 20.0781H30.5267Z" fill="black"></path>
  </g>
  <defs>
    <clipPath id="clip0_190_73">
      <rect width="69" height="45" fill="white"></rect>
    </clipPath>
  </defs>
</svg>
