<?xml version="1.0" encoding="UTF-8"?>
<svg xmlns="http://www.w3.org/2000/svg" width="250" height="50" viewBox="0 0 250 50" fill="none">
  <g clip-path="url(#clip0_955_140)">
    <path d="M18.7915 31.7311C19.9586 26.2302 21.1225 20.7263 22.2895 15.2224C21.4582 15.195 20.63 15.1736 19.7987 15.1431C20.1057 15.1553 20.4414 15.3873 20.3135 15.9459C19.4917 19.7922 18.67 23.6385 17.8482 27.4818C17.7395 26.8224 17.634 26.1631 17.5253 25.5037L17.2663 26.7064C17.2247 26.8988 17.0425 27.0392 16.8379 27.0331C16.63 27.027 16.4574 26.8835 16.4254 26.6881L14.5261 15.0149V14.9385C13.2599 14.8867 11.9937 14.8348 10.7307 14.7768V14.789C11.0249 14.8561 11.3702 15.1583 11.303 15.662L11.2775 15.7109C10.6348 19.49 9.99208 23.2692 9.35259 27.0453L8.9593 25.1588L8.77385 26.2455C8.74188 26.4409 8.56602 26.5843 8.35818 26.5874C8.15674 26.5843 7.97129 26.4531 7.92972 26.2577L5.48686 14.5142C4.0512 14.4349 2.61874 14.3616 1.18307 14.2731L1.19267 14.325C1.44207 14.4562 1.68188 14.7859 1.74263 15.14C2.89052 20.65 4.03841 26.157 5.1895 31.6609C6.86816 31.7524 8.55962 31.8379 10.2447 31.9173C10.2319 31.7647 10.2415 31.5876 10.2894 31.377L11.3158 26.4561C11.3574 26.2608 11.5365 26.1203 11.7443 26.1264C11.9521 26.1295 12.1248 26.276 12.16 26.4714L12.4637 28.2694L12.5053 28.5105L12.7355 27.3994C13.2279 30.3024 13.4326 31.5235 13.5253 32.0669C15.2455 32.1401 17.0009 32.2073 18.7691 32.2714C18.7467 32.1035 18.7531 31.9234 18.7915 31.7372V31.7311Z" fill="#C39B5C"></path>
    <path d="M16.5884 15.0271C16.1856 15.0118 15.7859 14.9935 15.383 14.9752L16.905 24.3163L17.148 23.1837L15.9489 15.8116C15.8978 15.2957 16.3071 15.018 16.5916 15.0271H16.5884ZM11.7091 32.3325L12.0257 30.8123C11.9553 30.391 11.8498 29.7744 11.6931 28.8464L11.1304 31.551C11.0696 31.8105 11.108 31.9295 11.1304 31.9662C11.3478 31.9936 11.5077 32.1768 11.4981 32.3905C11.4853 32.6164 11.2807 32.7873 11.0504 32.7782C9.12556 32.6896 7.1879 32.5919 5.26623 32.4882C5.20867 32.7324 5.06159 32.8881 4.87933 32.8789C7.27743 33.0102 9.67233 33.1262 12.0704 33.233C11.8658 33.2238 11.5556 32.9888 11.7123 32.3355L11.7091 32.3325ZM7.4437 14.6211C7.08558 14.6028 6.72747 14.5814 6.36935 14.5631L8.30382 23.8797L8.47648 22.8663C7.9521 20.3448 7.43091 17.8264 6.90652 15.3049C6.82979 14.786 7.16232 14.6058 7.4469 14.6211H7.4437ZM23.1656 15.253C23.1592 15.2713 23.1496 15.2866 23.1464 15.3049C21.9762 20.8302 20.8027 26.3646 19.6324 31.896C19.5877 32.1279 19.6324 32.2623 19.6644 32.3081C19.8754 32.3386 20.0353 32.5187 20.0257 32.7263C20.0161 32.9461 19.8275 33.1201 19.5973 33.1201H19.5813C17.5669 33.0498 15.5621 32.9735 13.602 32.8881C13.5477 33.1903 13.3654 33.288 13.2279 33.2818C15.6836 33.3856 18.1424 33.4803 20.5981 33.5627C20.3167 33.5535 20.1088 33.1781 20.2144 32.6683C21.3878 27.1338 22.5613 21.5964 23.7316 16.0589C23.8339 15.6468 24.1952 15.2866 24.4766 15.2957C24.0417 15.2835 23.6037 15.2683 23.1688 15.253H23.1656Z" fill="#C39B5C"></path>
    <path d="M19.2104 31.8135C19.108 32.3233 19.3127 32.6988 19.5941 32.711C17.1384 32.6255 14.6796 32.5278 12.2239 32.421C12.403 32.4301 12.662 32.2683 12.6108 31.7036C12.5937 31.6039 12.3028 29.8832 11.7379 26.5416C11.3958 28.187 11.0536 29.8293 10.7115 31.4716C10.558 32.1249 10.865 32.3599 11.0696 32.3721C8.67152 32.2622 6.27662 32.1401 3.87852 32.0058C4.1599 32.0211 4.36773 31.6395 4.26542 31.145C3.09195 25.519 1.91848 19.893 0.745009 14.2639C0.66827 13.8182 0.306956 13.4031 0 13.3848C2.14869 13.516 4.29739 13.6381 6.44608 13.7511C6.16471 13.7358 5.82897 13.9159 5.90571 14.4349C6.71787 18.3514 7.53322 22.2679 8.34538 26.1814C8.98807 22.4053 9.63076 18.6261 10.2703 14.85L10.2958 14.8012C10.3726 14.2426 9.93771 13.9251 9.62756 13.9129C11.6132 14.0075 13.5988 14.093 15.5844 14.1723C15.3031 14.1601 14.8906 14.4379 14.9417 14.9569C15.5748 18.849 16.2079 22.738 16.841 26.6301C17.6628 22.7869 18.4845 18.9436 19.3063 15.0973C19.4342 14.5387 19.1016 14.3067 18.7915 14.2944C20.3487 14.3494 21.909 14.4013 23.4662 14.4471C23.1848 14.4379 22.8235 14.7951 22.7212 15.2102C21.5477 20.7477 20.3742 26.2821 19.204 31.8166L19.2104 31.8135Z" fill="#101010"></path>
    <path d="M36.2592 27.3139C34.8492 27.2925 33.4391 27.2681 32.029 27.2375V32.1645C32.0546 32.5247 32.3807 32.6407 32.4383 32.6468C32.4958 32.6468 32.5502 32.659 32.5981 32.6804V27.6558C33.8164 27.6802 35.0378 27.6985 36.256 27.7168V27.3108L36.2592 27.3139Z" fill="#C39B5C"></path>
    <path d="M37.1065 18.9374C37.1065 18.9527 37.1097 18.968 37.1097 18.9863C37.3751 19.0901 37.6853 19.3648 37.6853 19.8837V25.2716C35.9906 25.2472 34.296 25.2197 32.5981 25.1862V24.7741L31.5909 24.7557C31.3575 24.7496 31.172 24.5695 31.172 24.3467V18.9191C31.172 18.8886 31.1816 18.8581 31.1848 18.8275C29.989 18.8031 28.7963 18.7787 27.6005 18.7482C27.6005 18.7634 27.6037 18.7787 27.6037 18.797C27.8691 18.9039 28.1792 19.1816 28.1792 19.7006V32.5522C29.1992 32.5766 30.2288 32.601 31.2712 32.6224C31.2168 32.4942 31.1816 32.3507 31.172 32.192V26.8193C31.172 26.7094 31.2168 26.6056 31.2999 26.5263C31.3831 26.45 31.4918 26.4042 31.6101 26.4103C33.3048 26.4439 34.9994 26.4744 36.6941 26.5019C36.9275 26.5049 37.1161 26.6881 37.1161 26.9109V27.7321C37.308 27.7321 37.4966 27.7382 37.6885 27.7412V32.7323C38.7181 32.7475 39.7476 32.7597 40.7772 32.772C40.7261 32.6437 40.6909 32.4972 40.6813 32.3385V19.0443C40.6813 19.0229 40.6877 19.0015 40.6909 18.9802C39.4982 18.968 38.3024 18.9557 37.1097 18.9374H37.1065ZM42.9291 19.0046C42.4687 19.0015 42.0083 18.9924 41.5478 18.9893C41.5414 19.0168 41.535 19.0412 41.5318 19.0717V32.311C41.5606 32.717 41.9251 32.7842 41.9347 32.7842C41.9955 32.7842 42.0498 32.7964 42.1042 32.8208V19.8715C42.1489 19.2549 42.6829 19.0046 42.9291 19.0046ZM32.7004 33.3703C32.6237 33.4313 32.5246 33.468 32.4191 33.4649C30.9418 33.4374 29.4774 33.4039 28.0417 33.3672C27.8627 33.6511 27.5621 33.7641 27.3831 33.758C29.3975 33.8099 31.4151 33.8526 33.4295 33.8892C33.2408 33.8862 32.8795 33.7244 32.7036 33.3672L32.7004 33.3703Z" fill="#C39B5C"></path>
    <path d="M32.029 18.9467V23.9499C32.2208 23.953 32.4095 23.9561 32.6013 23.9591V19.7556C32.6461 19.1176 33.1801 18.8734 33.4263 18.8765C32.9658 18.8673 32.5054 18.8551 32.045 18.8459C32.0386 18.8765 32.029 18.907 32.029 18.9436V18.9467ZM42.2033 33.5077C42.1298 33.5657 42.0371 33.6024 41.9315 33.6024H41.9251C40.4735 33.5871 39.0186 33.5657 37.567 33.5474C37.3943 33.8679 37.0746 33.9534 36.8827 33.9504C38.8971 33.9809 40.9147 34.0023 42.9291 34.0206C42.7373 34.0206 42.376 33.871 42.2001 33.5077H42.2033Z" fill="#C39B5C"></path>
    <path d="M41.9315 33.1932C39.9171 33.1749 37.8995 33.1474 35.8851 33.1169C36.1537 33.12 36.6877 32.9582 36.6877 32.192V26.9109C34.993 26.8865 33.2984 26.856 31.6005 26.8193V32.1645C31.6453 32.7842 32.1793 33.0497 32.4255 33.0559C30.4111 33.0162 28.3935 32.9704 26.3791 32.9154C26.6476 32.9215 27.1816 32.6804 27.1816 31.9996V18.8581C27.1816 18.1773 26.6476 17.9056 26.3791 17.8995C28.3935 17.9545 30.4111 18.0003 32.4255 18.04C32.1793 18.0369 31.6453 18.2811 31.6005 18.9191V24.3497C33.2952 24.3833 34.9898 24.4139 36.6877 24.4413V19.0504C36.6877 18.3696 36.1537 18.1041 35.8851 18.101C37.8995 18.1346 39.9171 18.159 41.9315 18.1773C41.6853 18.1773 41.1513 18.4246 41.1066 19.0412V32.311C41.1513 32.949 41.6853 33.1902 41.9315 33.1932Z" fill="#101010"></path>
    <path d="M52.2114 19.0476C51.7509 19.0476 51.2905 19.0446 50.8269 19.0446C50.8205 19.0751 50.8141 19.1026 50.8141 19.1361V32.3266C50.8301 32.7814 51.2106 32.8363 51.2138 32.8363C51.2745 32.8363 51.3321 32.8516 51.3864 32.876V19.942C51.4088 19.304 51.9428 19.0476 52.2114 19.0476ZM46.3888 19.0293C46.3888 19.0446 46.392 19.0598 46.392 19.0781C46.6574 19.1789 46.9675 19.4475 46.9675 19.9512V32.8241C47.9971 32.8302 49.0267 32.8333 50.0595 32.8363C50.0019 32.6929 49.9668 32.528 49.9604 32.3418V19.1239C49.9604 19.0965 49.9668 19.069 49.97 19.0415C48.7773 19.0415 47.5846 19.0385 46.392 19.0323L46.3888 19.0293ZM51.4824 33.5568C51.4088 33.6148 51.3161 33.6514 51.2106 33.6514C49.7493 33.6514 48.2881 33.6422 46.8269 33.6331C46.651 33.9231 46.3472 34.0421 46.165 34.0421C48.1794 34.0543 50.197 34.0605 52.2114 34.0605C52.0099 34.0605 51.655 33.9139 51.4824 33.5568Z" fill="#C39B5C"></path>
    <path d="M51.2138 33.2452C49.1994 33.2452 47.1818 33.236 45.1674 33.2207C45.4359 33.2207 45.9699 32.9704 45.9699 32.2897V19.1267C45.9699 18.4674 45.4359 18.2079 45.1674 18.2048C47.1818 18.217 49.1994 18.2262 51.2138 18.2293C50.9452 18.2293 50.4112 18.4826 50.3888 19.1237V32.3294C50.4112 32.9887 50.9452 33.2452 51.2138 33.2452Z" fill="#101010"></path>
    <path d="M61.8581 28.0954C60.9564 27.9611 59.703 27.7749 58.4848 27.3964C59.9268 28.0405 61.6758 28.3152 62.9229 28.4984C63.4025 28.5686 63.8821 28.6266 64.317 28.712C64.0068 28.4404 63.3193 28.2969 62.1779 28.1382L61.8581 28.0924V28.0954ZM57.7654 29.3775C57.727 29.2676 57.6982 29.1577 57.679 29.0448C57.6375 29.0723 57.5959 29.1028 57.5543 29.1303C57.6183 29.2157 57.6918 29.2951 57.7654 29.3745V29.3775Z" fill="#C39B5C"></path>
    <path d="M60.7102 24.2979C59.767 24.0537 58.4336 23.5195 58.3697 22.4297C58.3441 21.9321 58.5647 21.4712 59.0028 21.0957C59.9013 20.3264 61.679 19.9601 63.3257 20.2043C65.1899 20.4943 66.1779 21.343 66.5584 22.0939C67.006 21.7795 67.4505 21.462 67.8981 21.1445C67.3002 20.2318 66.4209 19.5541 65.4105 19.0901C61.4041 17.924 56.2434 19.4442 55.9172 23.7454C55.8789 24.2826 55.9492 24.7558 56.1059 25.1771C57.257 26.392 59.5527 26.9232 61.9892 27.2864L62.3026 27.3322C63.7222 27.5306 65.321 27.7596 65.3657 29.0539C65.7494 29.2645 65.9796 29.5698 65.9349 30.046C65.8453 31.1327 63.0348 32.3141 60.0899 31.4594C59.8245 31.3861 59.5591 31.2701 59.3065 31.1266C59.1946 31.0992 59.0795 31.0717 58.9676 31.0381C58.2194 30.8275 57.4136 30.3177 56.8701 29.6156C56.3904 29.9544 55.9108 30.2902 55.428 30.6291L55.4472 30.6657C56.7166 32.2958 58.8749 33.0742 62.0084 33.0528C65.3977 33.0284 68.1123 31.2823 68.3234 28.9928C68.4928 27.2254 67.6423 26.215 66.229 25.5708C65.0556 25.2198 63.7766 25.0458 62.699 24.881C62.3921 24.8443 61.4424 24.6764 60.7102 24.2948V24.2979Z" fill="#C39B5C"></path>
    <path d="M64.2594 21.4192C64.4512 21.4497 64.6303 21.4864 64.7998 21.5291C64.4001 21.3093 63.8725 21.1201 63.1914 21.0163C61.8293 20.8117 60.2722 21.1109 59.5751 21.7092C59.3289 21.9198 59.2138 22.1427 59.2266 22.393C59.2426 22.6525 59.476 22.8814 59.8085 23.0737C59.9236 21.7886 62.3057 21.1323 64.2594 21.4223V21.4192ZM68.9437 27.0971C69.1579 27.6496 69.2474 28.2998 69.1739 29.0661C68.9181 31.8226 65.9093 33.8434 62.0148 33.8709H61.8645C60.4864 33.8709 59.2714 33.7091 58.2194 33.3947C59.7446 34.1273 61.516 34.2861 63.0124 34.2708C66.4241 34.2433 69.5032 32.4972 69.7494 29.8323C69.8645 28.6417 69.5352 27.7595 68.9469 27.0971H68.9437ZM68.8829 21.233C68.8925 21.3673 68.835 21.5016 68.7135 21.5871C68.1411 21.9931 67.572 22.3961 66.9996 22.799C67.2075 23.0829 67.3066 23.3576 67.3162 23.5805C68.0292 23.0737 68.7454 22.5701 69.4585 22.0633C69.2922 21.7672 69.1004 21.4894 68.8829 21.233Z" fill="#C39B5C"></path>
    <path d="M68.7486 29.0295C68.5024 31.6944 65.4233 33.4375 62.0116 33.4649C59.4025 33.4863 55.9428 32.9887 54.4272 29.817C55.1786 29.2889 55.93 28.7639 56.6814 28.2358C56.8829 29.3652 57.9764 30.339 59.0891 30.6535C62.034 31.5112 64.8445 30.3329 64.9341 29.2462C65.046 28.0526 63.4632 27.9183 61.9221 27.6955C59.3577 27.3139 54.651 26.5599 54.9164 22.9364C55.3833 16.7915 65.7143 16.3244 68.4577 21.2605C67.7446 21.7672 67.0284 22.2709 66.3154 22.7746C66.293 22.1152 65.4681 20.9522 63.2586 20.6103C61.2282 20.3081 58.731 21.0255 58.7981 22.4083C58.8653 23.5805 61.1835 24.014 61.6982 24.072C64.6431 24.5207 69.1259 25.0641 68.7486 29.0295Z" fill="#101010"></path>
    <path d="M85.9254 32.1157C84.1253 29.4263 82.3251 26.74 80.5249 24.0476C80.4226 23.8949 80.4386 23.6965 80.5601 23.5622C82.0277 21.929 83.4985 20.2959 84.9662 18.6597C84.3107 18.6749 83.6552 18.6902 82.9997 18.7024C83.2459 18.6963 83.6009 18.9649 83.2012 19.4228C83.1116 19.551 83.134 19.5144 78.0245 25.1679V23.8888L77.3498 24.6337C77.2315 24.7619 77.0461 24.8077 76.8766 24.7497C76.7103 24.6917 76.5984 24.536 76.5984 24.3681V18.8947C76.5984 18.8672 76.6048 18.8459 76.6048 18.8215C75.4122 18.8428 74.2195 18.8642 73.0269 18.8825C73.0269 18.8978 73.0301 18.913 73.0301 18.9283C73.2954 19.0229 73.6056 19.2855 73.6056 19.7891V32.6621C74.6352 32.6468 75.6616 32.6285 76.6911 32.6132C76.6336 32.4698 76.5952 32.3019 76.5952 32.1004V28.0954C76.5952 27.9977 76.6336 27.903 76.7007 27.8267L77.5257 26.917C77.6152 26.8194 77.7463 26.7675 77.8806 26.7766C78.0149 26.7858 78.1364 26.856 78.2099 26.9659C79.2587 28.538 80.3075 30.107 81.3562 31.6761C81.4394 31.7982 81.5001 31.9111 81.5417 32.018C81.6536 32.1828 81.7623 32.3477 81.8742 32.5156C83.3003 32.4881 84.7232 32.4576 86.146 32.424C86.0757 32.3324 85.999 32.2286 85.9222 32.1157H85.9254Z" fill="#C39B5C"></path>
    <path d="M81.417 23.8644C81.5801 24.1086 81.7431 24.3528 81.9094 24.6001C83.5593 22.7655 85.2092 20.9278 86.8591 19.0901C87.1501 18.8062 87.4154 18.6078 87.684 18.6017C87.1596 18.6139 86.6385 18.6231 86.1141 18.6353C84.5601 20.3692 82.987 22.1153 81.417 23.8644ZM77.7975 27.8695L77.4521 28.248V32.1004C77.4521 32.5461 77.8358 32.5919 77.8422 32.5919H77.8518C77.9126 32.5919 77.9733 32.6041 78.0245 32.6285V28.8952C78.114 28.7975 78.2004 28.6998 78.2899 28.6021C78.1268 28.3579 77.9637 28.1106 77.8007 27.8664L77.7975 27.8695ZM87.5913 33.0956C87.5178 33.1658 87.4154 33.2146 87.3003 33.2146C85.5929 33.2543 83.8854 33.2879 82.1748 33.3215C82.0885 33.6298 81.692 33.7427 81.5289 33.7458C83.7831 33.7 86.0341 33.6512 88.2883 33.5993C88.0965 33.6023 87.8471 33.4008 87.5913 33.0925V33.0956ZM78.1172 33.3215C78.0501 33.3734 77.9669 33.4039 77.8774 33.41H77.8582C76.3906 33.4375 74.9262 33.4588 73.4585 33.4802C73.2795 33.7641 72.9821 33.8984 72.803 33.9015C74.8174 33.8709 76.835 33.8374 78.8494 33.8007C78.648 33.8038 78.2867 33.6664 78.1172 33.3215ZM77.4553 18.9375V23.2692L78.0277 22.6373V19.7342C78.0277 19.0535 78.5841 18.7879 78.8526 18.7818C78.3922 18.7909 77.9318 18.7971 77.4713 18.8062C77.4649 18.8459 77.4585 18.8886 77.4585 18.9344L77.4553 18.9375Z" fill="#C39B5C"></path>
    <path d="M87.2875 32.8086C85.0333 32.8605 82.7823 32.9063 80.5281 32.9521C80.7743 32.946 81.5545 32.6987 80.9981 31.8989C79.9494 30.3299 78.9006 28.7578 77.8518 27.1887C77.5768 27.4909 77.3019 27.7962 77.0269 28.0984V32.1035C77.0269 32.7628 77.5832 33.0101 77.8518 33.004C75.8374 33.0406 73.8198 33.0742 71.8054 33.1017C72.074 33.0986 72.608 32.8117 72.608 32.1523V18.9894C72.608 18.33 72.074 18.0797 71.8054 18.0858C73.8198 18.0552 75.8374 18.0247 77.8518 17.9881C77.5832 17.9942 77.0269 18.2567 77.0269 18.9405V24.3711C82.1364 18.7207 82.114 18.7574 82.2036 18.6291C82.6064 18.1743 82.2483 17.9026 82.0021 17.9087C83.5625 17.8782 85.126 17.8446 86.6864 17.808C86.4178 17.8141 86.1492 18.0125 85.8615 18.2934C84.202 20.1402 82.5457 21.984 80.8862 23.8278C82.6864 26.5171 84.4865 29.2065 86.2867 31.8928C86.6448 32.4179 87.0221 32.8147 87.2907 32.8086H87.2875Z" fill="#101010"></path>
    <path d="M99.78 32.0851L100.145 31.0014C98.6769 31.0411 97.2092 31.0808 95.7384 31.1205V30.7114L94.7504 30.7389C94.6353 30.745 94.5234 30.6992 94.4402 30.6229C94.3571 30.5466 94.3123 30.4398 94.3123 30.3299V26.7735C94.3123 26.5507 94.4978 26.3706 94.728 26.3645C96.1221 26.3279 97.513 26.2912 98.9071 26.2546V25.1801C97.8519 25.2075 96.7936 25.2381 95.7384 25.2655V24.8565L94.7504 24.884C94.6353 24.887 94.5234 24.8443 94.4402 24.768C94.3571 24.6916 94.3123 24.5848 94.3123 24.4749V19.9173C94.3123 19.6945 94.4978 19.5144 94.728 19.5083C96.5825 19.4594 98.4339 19.4106 100.288 19.3618L99.9239 18.2964C96.9503 18.3788 93.9798 18.4551 91.0062 18.5284C91.0062 18.5436 91.0094 18.5589 91.0094 18.5742C91.2748 18.6658 91.5881 18.9313 91.5881 19.4503V32.3019C94.3187 32.2347 97.0462 32.1645 99.7768 32.0912L99.78 32.0851Z" fill="#C39B5C"></path>
    <path d="M101.283 19.6212C101.324 19.7433 101.305 19.8777 101.225 19.9845C101.149 20.0913 101.024 20.1554 100.886 20.1585C98.9806 20.2104 97.075 20.2623 95.1661 20.3111V24.0506C95.3579 24.0445 95.5466 24.0414 95.7384 24.0353V20.7049C97.7848 20.653 99.828 20.595 101.874 20.5401C101.615 19.78 101.353 19.0199 101.094 18.2628C101.001 18.2628 100.912 18.2689 100.819 18.2689L101.283 19.6243V19.6212ZM99.764 26.6484C99.764 26.8682 99.5786 27.0513 99.3484 27.0574C97.9543 27.0941 96.5634 27.1338 95.1693 27.1673V29.9056C95.3611 29.8994 95.5498 29.8964 95.7416 29.8903V27.5611C97.2732 27.5214 98.8048 27.4787 100.336 27.439V25.1373C100.145 25.1434 99.9559 25.1465 99.764 25.1526V26.6484ZM100.503 32.6102C100.448 32.775 100.288 32.888 100.106 32.8941C97.222 32.9734 94.3411 33.0467 91.457 33.1169C91.2812 33.4252 90.971 33.5412 90.7856 33.5443C94.2196 33.4619 97.6569 33.3703 101.091 33.2757C101.35 32.5003 101.612 31.728 101.871 30.9526C101.596 30.9587 101.324 30.9679 101.049 30.974L100.499 32.6102H100.503Z" fill="#C39B5C"></path>
    <path d="M94.7408 30.3268C96.7872 30.2749 98.8304 30.22 100.877 30.162C100.618 30.9373 100.356 31.7096 100.097 32.485C96.6625 32.5796 93.2252 32.6682 89.7911 32.7506C90.0597 32.7445 90.5937 32.5186 90.5937 31.7951V18.6535C90.5937 17.9728 90.0597 17.7286 89.7911 17.7347C93.2252 17.6523 96.6625 17.5637 100.097 17.4691C100.356 18.2292 100.618 18.9893 100.877 19.7464C98.8304 19.8044 96.7872 19.8563 94.7408 19.9112V24.4688C96.2724 24.4291 97.804 24.3894 99.3356 24.3467V26.6484C97.804 26.6911 96.2724 26.7308 94.7408 26.7705V30.3268Z" fill="#101010"></path>
    <path d="M115.902 17.8263C115.361 17.8416 114.818 17.8599 114.277 17.8751C114.546 17.866 114.789 18.159 114.568 18.5253C113.705 19.8075 112.842 21.0896 111.982 22.3747C111.825 22.103 111.665 21.8344 111.508 21.5627L111.342 21.8069C111.262 21.929 111.128 21.9962 110.968 21.9962C110.818 21.9931 110.68 21.9107 110.607 21.7856L108.442 18.0797C108.442 18.0797 108.436 18.0583 108.429 18.0491C107.137 18.0858 105.846 18.1255 104.557 18.1621L104.755 18.504C104.845 18.6017 104.931 18.7146 104.998 18.8306C106.226 20.9461 107.451 23.0616 108.679 25.177V31.8318C109.708 31.8012 110.741 31.7707 111.77 31.7402C111.716 31.6089 111.681 31.4593 111.668 31.2945V24.2399C111.668 24.1605 111.691 24.0842 111.735 24.0201L115.902 17.8293V17.8263Z" fill="#C39B5C"></path>
    <path d="M116.944 17.7927C116.931 17.808 116.922 17.8202 116.909 17.8385L112.522 24.3589V31.2671C112.551 31.6822 112.902 31.7066 112.906 31.7066C112.973 31.7066 113.033 31.7188 113.091 31.7433V25.0244C114.578 22.8143 116.065 20.6042 117.552 18.3911C117.82 18.0217 118.089 17.7561 118.309 17.75C117.852 17.7653 117.395 17.7775 116.938 17.7927H116.944ZM113.197 32.4271C113.126 32.482 113.037 32.5186 112.938 32.5217C111.47 32.5675 110.005 32.6102 108.538 32.6529C108.356 32.9429 108.045 33.0773 107.879 33.0803C109.894 33.0223 111.911 32.9613 113.926 32.9002C113.721 32.9063 113.369 32.7751 113.2 32.4271H113.197Z" fill="#C39B5C"></path>
    <path d="M112.097 24.2368V31.264C112.141 31.902 112.653 32.1187 112.922 32.1126C110.907 32.1737 108.89 32.2347 106.875 32.2927C107.121 32.2866 107.678 32.0149 107.678 31.3525V24.3895C106.45 22.274 105.225 20.1585 103.997 18.043C103.796 17.6859 103.441 17.3776 103.195 17.3837C105.174 17.3287 107.15 17.2707 109.129 17.2127C108.883 17.2188 108.618 17.5058 108.816 17.8812C109.539 19.1176 110.258 20.3508 110.981 21.5871C111.844 20.305 112.707 19.0229 113.567 17.7408C113.791 17.3715 113.545 17.0815 113.276 17.0906C114.623 17.0509 115.969 17.0082 117.315 16.9685C117.091 16.9746 116.826 17.2402 116.557 17.6096L112.097 24.2399V24.2368Z" fill="#101010"></path>
    <path d="M52.5599 15.775C43.8244 15.775 35.1273 15.6743 26.3695 15.4423C26.1329 15.4361 25.9474 15.2469 25.9538 15.021C25.9602 14.7951 26.1489 14.6211 26.3951 14.6241C56.48 15.4209 85.8935 14.6547 118.469 13.6504C118.699 13.6381 118.904 13.8213 118.91 14.0441C118.917 14.267 118.731 14.4593 118.498 14.4654C95.3867 15.1767 73.8646 15.7689 52.5631 15.7689L52.5599 15.775ZM52.2529 38.2088C35.0538 38.2088 18.1872 37.8272 1.26301 36.8198C1.0264 36.8046 0.84734 36.6123 0.863328 36.3864C0.879315 36.1605 1.07756 35.9895 1.31737 36.0048C39.1785 38.2607 76.7743 37.3785 118.469 36.0964C118.699 36.0872 118.904 36.2673 118.91 36.4901C118.917 36.716 118.731 36.9053 118.498 36.9114C95.4091 37.6227 73.5736 38.2088 52.2561 38.2088H52.2529ZM140.736 36.2276C140.506 36.2276 140.317 36.0536 140.308 35.8308C140.301 35.6049 140.487 35.4156 140.724 35.4095C144.599 35.2935 148.477 35.1836 152.353 35.0829C152.583 35.0798 152.784 35.2538 152.794 35.4797C152.8 35.7056 152.615 35.8918 152.378 35.901C148.503 36.0048 144.628 36.1147 140.749 36.2276H140.736Z" fill="#C39B5C"></path>
    <path d="M167.825 21.6299L166.773 24.9421C167.042 24.9359 167.314 24.9298 167.582 24.9268C167.8 24.243 168.017 23.5623 168.234 22.8785L167.825 21.6299ZM176.583 30.6108C176.513 30.739 176.375 30.8275 176.212 30.8306C174.799 30.8519 173.386 30.8764 171.972 30.9038C171.937 31.1725 171.685 31.3159 171.496 31.319C173.398 31.2854 175.304 31.2518 177.207 31.2244C176.957 31.2274 176.708 30.8977 176.586 30.6108H176.583ZM172.433 16.2848C172.167 16.2909 171.905 16.2939 171.64 16.3001C173.082 20.7386 174.524 25.1832 175.969 29.6278C176.043 29.8202 176.174 29.9728 176.235 30.0125C176.292 30.0155 176.346 30.0338 176.398 30.0552C174.978 25.6838 173.561 21.3155 172.142 16.9503C172.03 16.5901 172.187 16.2909 172.433 16.2848Z" fill="#C39B5C"></path>
    <path d="M175.157 29.8873C173.683 25.3511 172.215 20.8332 170.748 16.3184C169.411 16.3428 168.078 16.3672 166.741 16.3947C167.01 16.3886 167.167 16.706 167.055 17.0907C165.651 21.4804 164.247 25.8731 162.844 30.2689C163.31 30.2597 163.78 30.2475 164.247 30.2384C164.238 30.1285 164.247 30.0155 164.279 29.8995L164.976 27.7321C165.031 27.5643 165.191 27.4483 165.376 27.4452C166.997 27.4116 168.618 27.378 170.239 27.3475C170.418 27.3475 170.597 27.4605 170.655 27.6314L170.965 28.5594C171.058 28.5594 171.154 28.5564 171.246 28.5533C171.416 29.0631 171.589 29.5759 171.758 30.0857C172.909 30.0644 174.063 30.046 175.215 30.0277C175.192 29.9789 175.17 29.93 175.154 29.8873H175.157ZM167.189 26.16C167.234 26.0227 167.275 25.8853 167.32 25.7479C166.946 25.754 166.572 25.7632 166.201 25.7693H166.191C166.057 25.7693 165.932 25.7113 165.849 25.6075C165.766 25.5037 165.74 25.3664 165.782 25.2412L167.41 20.1189C167.464 19.9479 167.63 19.8289 167.819 19.8289C168.007 19.8289 168.171 19.9449 168.228 20.1158L168.676 21.4865L168.82 21.0377C169.37 22.7228 169.92 24.4109 170.47 26.0959L167.189 26.16Z" fill="#C39B5C"></path>
    <path d="M166.386 28.648C167.617 28.6235 168.845 28.5991 170.076 28.5747L169.942 28.1687C168.532 28.1962 167.119 28.2236 165.708 28.2542L165.107 30.1163C165.101 30.1468 165.104 30.1834 165.111 30.1956C165.12 30.2079 165.146 30.217 165.155 30.217C165.392 30.2048 165.587 30.391 165.593 30.6169C165.6 30.8428 165.411 31.029 165.175 31.0351C164.295 31.0534 163.416 31.0748 162.54 31.0931C162.405 31.3221 162.223 31.5083 162.038 31.5113C162.178 31.5083 162.319 31.5052 162.463 31.5022C163.697 31.4747 164.931 31.4472 166.166 31.4228C165.92 31.4289 165.587 31.2213 165.699 30.794L166.39 28.651L166.386 28.648Z" fill="#C39B5C"></path>
    <path d="M176.206 30.4215C174.303 30.452 172.398 30.4826 170.495 30.5192C170.741 30.5131 171.096 30.2719 170.943 29.8293C170.713 29.1394 170.482 28.4465 170.252 27.7535C168.631 27.784 167.01 27.8176 165.389 27.8512L164.698 29.9972C164.586 30.4246 164.922 30.6321 165.165 30.626L161.462 30.7085C161.322 30.7115 161.181 30.7146 161.037 30.7176C161.306 30.7115 161.574 30.3208 161.683 29.9789C163.141 25.4152 164.599 20.8546 166.057 16.2939C166.169 15.9093 166.012 15.5918 165.744 15.5979C167.64 15.5582 169.536 15.5216 171.432 15.485C171.186 15.488 171.029 15.7902 171.141 16.1505C172.612 20.6806 174.086 25.2137 175.557 29.7499C175.669 30.046 175.937 30.4246 176.203 30.4215H176.206ZM169.469 25.2992C168.919 23.6141 168.369 21.926 167.819 20.241C167.275 21.9474 166.732 23.6569 166.191 25.3633C167.285 25.3419 168.378 25.3175 169.472 25.2961L169.469 25.2992Z" fill="#101010"></path>
    <path d="M185.328 16.1107C184.868 16.1138 184.407 16.1229 183.944 16.126C183.937 16.1565 183.931 16.184 183.931 16.2206V29.411C183.947 29.8598 184.318 29.9086 184.324 29.9086C184.388 29.9117 184.446 29.9269 184.503 29.9514V17.0143C184.526 16.3763 185.06 16.1138 185.328 16.1107ZM179.502 16.1779C179.502 16.1931 179.506 16.2084 179.506 16.2237C179.771 16.3183 180.081 16.5839 180.081 17.0845V29.9575C181.111 29.9452 182.143 29.93 183.173 29.9208C183.115 29.7743 183.077 29.6095 183.071 29.4232V16.2053C183.071 16.1809 183.077 16.1596 183.077 16.1351C181.884 16.1473 180.692 16.1596 179.499 16.1748L179.502 16.1779ZM184.599 30.626C184.532 30.6809 184.449 30.7206 184.353 30.7237H184.334C182.869 30.7389 181.405 30.7572 179.94 30.7786C179.761 31.0656 179.464 31.1907 179.282 31.1938C181.296 31.1663 183.314 31.1449 185.328 31.1236C185.127 31.1236 184.769 30.9801 184.599 30.626Z" fill="#C39B5C"></path>
    <path d="M184.327 30.3177C182.313 30.339 180.295 30.3634 178.281 30.3909C178.55 30.3879 179.084 30.1253 179.084 29.4415V16.2817C179.084 15.6223 178.55 15.372 178.281 15.3781C180.295 15.3506 182.313 15.3262 184.327 15.3048C184.059 15.3048 183.525 15.5704 183.502 16.2084V29.411C183.525 30.0704 184.059 30.3207 184.327 30.3177Z" fill="#101010"></path>
    <path d="M192.826 29.8506C195.132 29.8445 197.047 29.1424 198.367 27.8206C199.739 26.45 200.443 24.423 200.34 22.1153C200.228 19.4869 198.844 17.4569 196.666 16.419C195.857 16.1809 194.978 16.0558 194.048 16.0558C192.062 16.0619 190.076 16.071 188.091 16.0863C188.091 16.1016 188.094 16.1168 188.094 16.1321C188.359 16.2298 188.673 16.4984 188.673 17.0174V29.8689C190.057 29.8598 191.442 29.8506 192.826 29.8476V29.8506ZM191.397 17.5699C191.397 17.344 191.589 17.1608 191.822 17.1608H192.305C194.633 17.1608 196.126 17.9728 196.826 19.6213C197.562 20.4363 197.84 21.5963 197.862 22.9547C197.907 26.279 196.522 28.7639 193.267 28.7761H192.82V28.3426C192.641 28.3579 192.458 28.3701 192.27 28.3701H191.822C191.71 28.3701 191.602 28.3304 191.522 28.2541C191.442 28.1778 191.394 28.074 191.394 27.9641V17.5699H191.397Z" fill="#C39B5C"></path>
    <path d="M192.823 27.5185V18.385H193.271C193.885 18.385 194.419 18.443 194.892 18.5529C194.252 18.1652 193.399 17.979 192.311 17.979H192.254V27.5551H192.27C192.462 27.5551 192.644 27.5398 192.823 27.5215V27.5185Z" fill="#C39B5C"></path>
    <path d="M201.77 22.9212C201.702 21.3766 201.213 20.0242 200.398 18.9406C200.868 19.8716 201.149 20.9309 201.2 22.0848C201.312 24.6154 200.526 26.853 198.991 28.3884C197.504 29.872 195.375 30.6627 192.833 30.6688C191.4 30.6749 189.964 30.684 188.532 30.6932C188.35 30.9771 188.043 31.1022 187.873 31.1053C189.859 31.09 191.845 31.0809 193.83 31.0748C199.186 31.0626 201.974 27.5032 201.773 22.9242L201.77 22.9212Z" fill="#C39B5C"></path>
    <path d="M192.829 30.2597C190.844 30.2658 188.858 30.278 186.872 30.2933C187.119 30.2933 187.675 30.0308 187.675 29.3714V16.2115C187.675 15.5308 187.141 15.2774 186.872 15.2805C188.932 15.2652 190.991 15.253 193.053 15.2438C197.383 15.2286 200.593 17.9698 200.772 22.1C200.973 26.682 198.185 30.2414 192.829 30.2597ZM196.868 22.1367C196.823 19.4748 195.797 17.5547 192.273 17.5669H191.825V27.9642H192.273C195.531 27.9519 196.913 25.464 196.868 22.1397V22.1367Z" fill="#101010"></path>
    <path d="M212.977 29.9605L213.341 28.8951C211.87 28.8738 210.403 28.8494 208.932 28.8341V28.425C208.596 28.422 208.26 28.4159 207.928 28.4128C207.694 28.4128 207.506 28.2297 207.506 28.0038V24.4475C207.506 24.3376 207.55 24.2338 207.634 24.1575C207.714 24.0811 207.822 24.0384 207.934 24.0384H207.937C209.325 24.0537 210.713 24.0689 212.1 24.0903V23.0188C211.045 23.0036 209.987 22.9883 208.932 22.9761V22.5701C208.596 22.567 208.263 22.5609 207.928 22.5579C207.694 22.5579 207.506 22.3747 207.506 22.1488V17.5913C207.506 17.4814 207.55 17.3776 207.634 17.3013C207.714 17.2249 207.822 17.1822 207.934 17.1822H207.937C209.811 17.2005 211.672 17.2249 213.475 17.2524L213.111 16.1748C210.14 16.129 207.17 16.0955 204.2 16.0771C204.2 16.0924 204.203 16.1077 204.203 16.1229C204.468 16.2237 204.778 16.4984 204.778 17.0174V29.872C207.55 29.8903 210.297 29.9208 212.973 29.9605H212.977Z" fill="#C39B5C"></path>
    <path d="M214.473 17.5454C214.515 17.6706 214.492 17.808 214.409 17.9148C214.326 18.0216 214.195 18.0857 214.057 18.0796C212.206 18.0491 210.291 18.0247 208.356 18.0033V21.7428C208.545 21.7428 208.737 21.7489 208.925 21.7489V18.4154C210.972 18.4368 213.015 18.4673 215.061 18.5009C214.802 17.7286 214.54 16.9593 214.281 16.187C214.192 16.187 214.102 16.187 214.013 16.184L214.47 17.5424L214.473 17.5454ZM212.954 24.5054C212.954 24.6153 212.909 24.7191 212.826 24.7954C212.743 24.8717 212.634 24.9114 212.519 24.9114C211.132 24.8901 209.744 24.8748 208.359 24.8595V27.5977C208.548 27.5977 208.74 27.6039 208.929 27.6039V25.2716C210.46 25.29 211.992 25.3083 213.523 25.3327V23.031C213.335 23.031 213.143 23.0249 212.954 23.0249V24.4993V24.5054ZM213.693 30.5008C213.635 30.6687 213.472 30.7816 213.287 30.7816H213.28C210.467 30.7389 207.57 30.7053 204.65 30.687C204.475 30.9862 204.164 31.093 203.982 31.09C207.416 31.1113 210.853 31.148 214.288 31.206C214.547 30.4428 214.809 29.6796 215.068 28.9195C214.793 28.9134 214.515 28.9134 214.24 28.9073L213.696 30.5008H213.693Z" fill="#C39B5C"></path>
    <path d="M207.931 28.0038C209.977 28.0251 212.021 28.0496 214.067 28.0831C213.808 28.8463 213.546 29.6095 213.287 30.3696C209.853 30.3177 206.415 30.281 202.981 30.2627C203.25 30.2627 203.784 30.0551 203.784 29.3286V16.1931C203.784 15.5124 203.25 15.2529 202.981 15.2529C206.415 15.2712 209.853 15.3048 213.287 15.3598C213.546 16.1321 213.808 16.9014 214.067 17.6737C212.021 17.6401 209.977 17.6126 207.931 17.5943V22.1519C209.463 22.1671 210.994 22.1855 212.526 22.2099V24.5116C210.994 24.4902 209.463 24.4688 207.931 24.4536V28.0099V28.0038Z" fill="#101010"></path>
    <path d="M225.44 18.8948C225.738 18.9039 226.067 18.9192 226.39 18.9711C225.993 18.5956 225.322 18.4796 224.427 18.4552C223.906 18.4399 223.381 18.4277 222.86 18.4125V21.4926C223.045 21.4987 223.237 21.5017 223.429 21.5078V18.8368C224.097 18.8551 224.769 18.8734 225.437 18.8917L225.44 18.8948ZM223.528 30.8947C223.451 30.9557 223.356 30.9924 223.247 30.9924C221.808 30.9527 220.34 30.9191 218.866 30.8886C218.684 31.1694 218.38 31.2854 218.214 31.2824C220.228 31.3251 222.246 31.3739 224.26 31.4289C224.059 31.4228 223.704 31.2671 223.531 30.8947H223.528ZM231.826 21.2117C231.653 22.7167 230.62 23.8339 228.9 24.3956C228.993 24.5635 229.274 24.997 229.274 24.997C231.26 24.5116 232.241 23.3791 232.398 22.0207C232.564 20.5646 232.241 19.3496 231.487 18.4308C231.826 19.2428 231.941 20.1799 231.826 21.2087V21.2117ZM222.863 24.7619V29.6248C222.879 30.1071 223.269 30.1743 223.272 30.1743C223.33 30.1743 223.384 30.1895 223.432 30.2109V25.5404C223.295 25.2809 223.154 25.0245 223.017 24.765H222.863V24.7619Z" fill="#C39B5C"></path>
    <path d="M230.908 29.7408C229.907 27.9458 228.906 26.1417 227.902 24.3407C227.842 24.2308 227.835 24.0995 227.89 23.9835C227.944 23.8675 228.046 23.7851 228.174 23.7515C229.859 23.3364 230.828 22.4267 230.978 21.1232C231.138 19.7068 230.822 18.5529 230.035 17.689C229.735 17.3593 229.357 17.0815 228.926 16.8465C228.206 16.6328 227.388 16.5015 226.47 16.4741C223.794 16.3916 221.114 16.3245 218.438 16.2695C218.438 16.2848 218.441 16.3001 218.441 16.3153C218.706 16.4222 219.017 16.7 219.017 17.2189V30.0705C220.053 30.0918 221.089 30.1163 222.109 30.1437C222.048 29.9942 222.013 29.8263 222.006 29.637V24.3437C222.006 24.2338 222.054 24.127 222.134 24.0507C222.217 23.9744 222.326 23.9316 222.444 23.9347L223.292 23.9561C223.448 23.9591 223.589 24.0446 223.659 24.1789C223.845 24.5208 224.027 24.8657 224.212 25.2076H224.28C225.185 26.8988 226.093 28.59 226.997 30.2811C228.456 30.3269 229.907 30.3757 231.333 30.4276C231.173 30.2109 231.026 29.9728 230.905 29.7408H230.908ZM225.731 22.8022C224.839 22.7747 224.145 22.7564 223.432 22.7381V22.329C223.087 22.3198 222.754 22.3107 222.422 22.3015C222.188 22.2954 222.006 22.1153 222.006 21.8925V17.9943C222.006 17.8844 222.054 17.7775 222.134 17.7012C222.217 17.6249 222.326 17.5791 222.444 17.5852C223.113 17.6035 223.784 17.6218 224.452 17.6402C225.239 17.6615 227.17 17.7165 227.579 19.4412C227.979 19.7587 228.248 20.2593 228.229 21.0683C228.206 22.6648 226.511 22.8235 225.731 22.8022ZM232.794 31.1877C232.721 31.2488 232.625 31.2885 232.52 31.2885H232.504C230.796 31.2244 229.053 31.1633 227.298 31.1084C227.247 31.3892 226.956 31.5052 226.783 31.5022C229.028 31.5724 231.276 31.6487 233.52 31.7372C233.351 31.7311 233.085 31.5418 232.798 31.1877H232.794Z" fill="#C39B5C"></path>
    <path d="M232.516 30.8794C230.272 30.7939 228.024 30.7176 225.779 30.6535C226.025 30.6596 226.515 30.4185 226.205 29.8141C225.229 27.9947 224.257 26.1784 223.282 24.3651C223.001 24.359 222.716 24.3498 222.435 24.3437V29.6248C222.457 30.3055 222.991 30.5772 223.26 30.5833C221.245 30.5284 219.228 30.4826 217.213 30.4429C217.459 30.449 217.993 30.2017 218.016 29.5637V16.3825C218.016 15.7017 217.482 15.4331 217.213 15.4301C219.963 15.485 222.716 15.5522 225.466 15.6315C229.594 15.7536 231.778 17.8233 231.4 21.1721C231.244 22.5305 230.262 23.663 228.276 24.1514C229.28 25.9525 230.284 27.7535 231.288 29.5576C231.736 30.4032 232.248 30.8703 232.516 30.8825V30.8794ZM222.432 17.9943V21.8925C223.145 21.9108 223.838 21.9291 224.73 21.9535C225.511 21.9749 227.205 21.8131 227.228 20.2166C227.272 18.2385 225.623 18.0797 224.44 18.0462C223.771 18.0278 223.1 18.0095 222.432 17.9912V17.9943Z" fill="#101010"></path>
    <path d="M241.415 26.1997L241.082 26.1326C240.165 25.9403 238.969 25.6899 237.814 25.2809C239.25 25.9891 240.983 26.3493 242.221 26.6088C242.691 26.7034 243.164 26.7919 243.592 26.9018C243.237 26.5813 242.473 26.4043 241.418 26.1967L241.415 26.1997Z" fill="#C39B5C"></path>
    <path d="M240.018 22.2862C239.081 21.9932 237.728 21.3887 237.667 20.3142C237.642 19.8105 237.866 19.3557 238.31 18.9985C239.218 18.2659 241.002 17.9942 242.649 18.3392C244.523 18.7421 245.504 19.664 245.869 20.4394C246.31 20.1585 246.751 19.8746 247.189 19.5938C246.582 18.6169 245.674 17.8599 244.628 17.3257C240.631 15.955 235.538 17.2127 235.212 21.4925C235.173 22.0206 235.244 22.4877 235.394 22.9089C236.58 24.2307 238.969 24.8504 241.265 25.3297L241.588 25.3938C243.02 25.6777 244.635 26.0013 244.66 27.3108C245.044 27.5459 245.274 27.8664 245.229 28.3426C245.14 29.4233 242.329 30.4184 239.384 29.408C239.125 29.3225 238.866 29.1974 238.623 29.0478C238.496 29.0112 238.371 28.9715 238.243 28.9287C237.501 28.6815 236.699 28.132 236.158 27.4085C235.682 27.7229 235.205 28.0343 234.729 28.3487C235.995 30.0429 238.169 30.9496 241.335 31.1083C244.277 31.2548 247.385 30.0552 247.624 27.4818C247.797 25.6716 246.825 24.5787 245.447 23.8583C244.296 23.4493 243.052 23.1959 242 22.9792C241.696 22.9242 240.753 22.7044 240.024 22.2893L240.018 22.2862Z" fill="#C39B5C"></path>
    <path d="M248.261 25.6258C248.459 26.1814 248.545 26.8163 248.472 27.5551C248.232 30.1498 245.479 31.9387 241.843 31.9387C241.661 31.9387 241.476 31.9325 241.287 31.9234C239.87 31.8532 238.639 31.6364 237.575 31.2793C239.087 32.0608 240.833 32.308 242.307 32.3843C245.719 32.5583 248.798 31.0412 249.044 28.3945C249.156 27.2223 248.839 26.3249 248.261 25.6228V25.6258ZM243.557 19.6091C243.733 19.6457 243.896 19.6915 244.056 19.7373C243.656 19.4992 243.135 19.2824 242.467 19.139C241.111 18.8551 239.563 19.0627 238.866 19.6243C238.627 19.8167 238.515 20.0303 238.527 20.2745C238.543 20.5432 238.78 20.7874 239.109 20.995C239.237 19.7251 241.613 19.2 243.56 19.6091H243.557ZM248.177 19.7251C248.177 19.8594 248.117 19.9876 247.992 20.067C247.423 20.4302 246.857 20.7935 246.288 21.1568C246.502 21.459 246.604 21.7459 246.611 21.9688C247.324 21.5139 248.04 21.056 248.753 20.6042C248.587 20.2929 248.395 19.9998 248.177 19.7251Z" fill="#C39B5C"></path>
    <path d="M248.046 27.5184C247.8 30.1651 244.721 31.6853 241.309 31.5174C238.7 31.3861 235.241 30.7267 233.725 27.494L235.979 26.0104C236.181 27.1491 237.274 28.1747 238.387 28.5441C241.332 29.5515 244.142 28.5533 244.232 27.4696C244.344 26.2821 242.761 26.0471 241.22 25.7387C238.655 25.2015 233.946 24.2399 234.214 20.6347C234.681 14.4776 245.012 14.5539 247.755 19.7251C247.042 20.1799 246.326 20.6378 245.613 21.0926C245.591 20.4302 244.766 19.2122 242.556 18.736C240.526 18.3117 238.029 18.9008 238.096 20.2898C238.163 21.462 240.481 22.0176 240.996 22.1092C243.941 22.7166 248.424 23.5744 248.046 27.5184Z" fill="#101010"></path>
    <path d="M151.237 16.2359C151.534 16.2268 151.854 16.2451 152.17 16.297C151.553 15.8879 150.725 15.8421 150.249 15.8543L148.353 15.9062V20.6531L148.925 20.6378V16.297L151.237 16.2329V16.2359Z" fill="#C39B5C"></path>
    <path d="M168.948 36.2062C166.92 36.1696 165.075 35.8307 163.451 35.1469C162.281 34.7867 161.216 34.283 160.273 33.6298C157.254 31.5509 155.403 27.9885 154.773 23.0402C154.751 22.8662 154.847 22.7013 155.01 22.625C157.328 21.5383 157.753 19.6457 157.83 18.8825C157.993 17.1456 157.545 15.6803 156.535 14.6485C156.142 14.2456 155.662 13.9189 155.112 13.6595C154.319 13.4519 153.424 13.342 152.423 13.3633C149.366 13.4458 146.309 13.5312 143.253 13.6198C143.259 13.6503 143.262 13.6839 143.266 13.7175C143.547 13.8487 143.844 14.1387 143.844 14.6577V30.7664C145.114 30.7298 146.383 30.6931 147.652 30.6596C147.566 30.4825 147.502 30.2566 147.502 29.9819V23.901C147.502 23.6812 147.688 23.4981 147.918 23.492L150.178 23.4309H150.191C150.409 23.4309 150.591 23.5866 150.616 23.7942C150.652 24.0842 150.693 24.365 150.738 24.6428C150.888 24.6398 151.039 24.6337 151.189 24.6306C151.464 26.9598 152.142 28.9318 153.104 30.5802C154.821 32.9857 157.104 34.396 159.109 35.2171C162.415 36.5725 166.028 36.7587 168.951 36.2123L168.948 36.2062ZM151.573 21.7947C150.69 21.8191 149.808 21.8436 148.928 21.868V21.4589L147.943 21.4864H147.931C147.819 21.4864 147.713 21.4467 147.633 21.3704C147.55 21.2941 147.502 21.1872 147.502 21.0773V15.5093C147.502 15.2896 147.688 15.1064 147.918 15.1003L150.23 15.0362C151.051 15.0148 152.202 15.143 153.011 15.894C153.328 16.187 153.558 16.5503 153.702 16.9746C154.15 17.3867 154.453 18.0033 154.453 18.9222C154.453 21.6421 152.477 21.7459 151.576 21.7917L151.573 21.7947Z" fill="#C39B5C"></path>
    <path d="M149.101 31.3739C149.04 31.4106 148.967 31.435 148.89 31.435C147.138 31.4838 145.389 31.5327 143.636 31.5846C143.422 31.8776 143.096 32.0089 142.917 32.0119C145.238 31.9448 147.557 31.8776 149.878 31.8166C149.67 31.8227 149.315 31.6945 149.104 31.3739H149.101ZM172.305 36.017C170.585 36.8198 168.292 37.3266 165.782 37.3266C163.94 37.3266 161.98 37.0488 160.046 36.4199C165.277 38.5232 171.419 37.8638 174.454 35.6751C173.721 35.8155 173.005 35.9285 172.305 36.0139V36.017ZM158.677 18.9528C158.591 19.8228 158.124 21.9352 155.656 23.2204C156.062 26.1448 156.915 28.535 158.198 30.3788C157.216 28.6235 156.532 26.4439 156.19 23.779C158.348 22.7686 159.119 21.0103 159.246 19.7068C159.406 18.0156 159.013 16.5626 158.118 15.4728C158.601 16.471 158.796 17.6432 158.674 18.9497L158.677 18.9528ZM149.811 24.2521L148.356 24.2918V29.9758C148.356 30.1865 148.42 30.3544 148.548 30.4734C148.669 30.5864 148.81 30.623 148.864 30.6199H148.877C148.893 30.6199 148.909 30.6199 148.925 30.623V24.6826C149.242 24.6734 149.561 24.6643 149.878 24.6551C149.855 24.5177 149.83 24.3865 149.811 24.2491V24.2521Z" fill="#C39B5C"></path>
    <path d="M173.456 34.8783C167.883 38.8987 151.832 37.7753 150.188 23.8339C149.433 23.8553 148.682 23.8736 147.927 23.895V29.9758C147.927 30.7603 148.57 31.0381 148.877 31.029C146.556 31.0931 144.238 31.1602 141.916 31.2274C142.198 31.2182 142.84 30.9069 142.84 30.1468V13.8671C142.84 13.107 142.198 12.8322 141.916 12.8383C145.085 12.7468 148.25 12.6552 151.419 12.5697C156.145 12.469 158.61 15.082 158.249 18.9161C158.121 20.2196 157.35 21.9779 155.192 22.9883C156.58 33.8679 163.704 36.7649 173.453 34.8783H173.456ZM153.449 18.1316C153.449 15.8513 151.601 15.4087 150.239 15.4453L147.927 15.5094V21.0743C148.81 21.0499 149.692 21.0255 150.572 21.0011C151.47 20.9522 153.449 20.8515 153.449 18.1286V18.1316Z" fill="#101010"></path>
    <path d="M248.069 14.157H248.043C216.216 12.2705 185.181 12.6612 159.019 13.2931C158.78 13.3023 158.588 13.1191 158.581 12.8963C158.575 12.6704 158.764 12.4842 158.997 12.4781C185.178 11.8462 216.238 11.4585 248.097 13.345C248.334 13.3603 248.513 13.5526 248.497 13.7785C248.484 13.9952 248.296 14.1631 248.072 14.1631L248.069 14.157ZM249.575 36.6885H249.546C228.19 35.3759 205.149 34.9577 177.031 35.3759C176.794 35.382 176.599 35.1988 176.596 34.9729C176.593 34.747 176.781 34.5608 177.018 34.5578C205.159 34.1396 228.222 34.5578 249.6 35.8704C249.837 35.8857 250.016 36.078 250 36.3039C249.984 36.5206 249.799 36.6855 249.575 36.6855V36.6885Z" fill="#C39B5C"></path>
    <path opacity="0.4" d="M123.952 10.7075L123.93 10.7533H123.952V10.7106V10.7075Z" fill="url(#paint0_radial_955_140)" fill-opacity="0.6"></path>
    <path opacity="0.4" d="M135.959 10.7229V10.7412H135.969L135.959 10.7229Z" fill="url(#paint1_radial_955_140)" fill-opacity="0.6"></path>
    <path d="M137.913 24.0751C137.683 22.5884 137.008 21.2056 136.573 19.7403C135.672 16.8159 135.483 13.7572 135.502 10.7412H135.499C135.195 10.6832 134.882 10.6496 134.565 10.6252C133.884 10.5702 133.187 10.5611 132.503 10.5336C132.292 10.5275 130.265 10.5 129.465 10.5C128.455 10.5031 127.444 10.5183 126.434 10.5488C125.449 10.5916 124.391 10.5977 123.476 10.7503C123.496 13.7633 123.307 16.822 122.405 19.7464C121.967 21.2147 121.296 22.5915 121.066 24.0751C120.794 25.5403 120.813 27.0758 121.312 28.4739C121.568 29.1699 121.938 29.8232 122.415 30.4001C122.91 30.9648 123.505 31.4411 124.154 31.8471C124.803 32.2683 125.571 32.7873 125.705 33.6908C125.756 34.5822 125.206 35.2599 124.762 35.8735C124.301 36.484 123.751 37.0762 123.528 37.7173C123.253 38.3705 124.116 38.6941 124.819 38.8925C126.313 39.2619 127.911 39.3321 129.475 39.3474C131.038 39.3382 132.637 39.2649 134.134 38.9017C134.834 38.7063 135.713 38.3858 135.448 37.7295C135.227 37.0854 134.677 36.4932 134.217 35.8826L134.063 35.672C133.654 35.1134 133.229 34.4937 133.27 33.7092C133.392 32.8086 134.159 32.2897 134.808 31.8684C135.457 31.4624 136.055 30.9893 136.554 30.4215C137.034 29.8445 137.411 29.1913 137.667 28.4922C138.169 27.088 138.191 25.5495 137.919 24.0812L137.913 24.0751Z" fill="url(#paint2_radial_955_140)"></path>
    <path opacity="0.3" d="M127.118 35.727C127.716 35.9834 128.567 36.1483 129.52 36.1483C131.326 36.1483 132.791 35.5713 132.791 34.86C132.791 34.625 132.618 34.4052 132.337 34.2159C131.771 34.6006 130.69 35.0249 129.481 35.0249C128.273 35.0249 126.61 34.2159 126.249 34.86C126.197 34.9486 125.628 36.1757 125.452 36.3925C124.704 37.351 124.241 38.0073 124.65 38.3828C125.484 39.1398 128.65 39.3444 130.389 39.3444H130.495C131.179 39.3444 131.579 39.2619 131.761 39.2589C129.974 39.2223 126.575 39.0696 125.82 38.3828C125.411 38.0104 125.871 37.351 126.623 36.3925C126.808 36.1635 126.962 35.9468 127.121 35.727H127.118Z" fill="#101010"></path>
    <path d="M137.916 25.464C135.528 25.403 132.695 25.3694 129.296 25.3694C126.965 25.3694 124.902 25.3846 123.061 25.4152C122.645 25.4213 122.252 25.4304 121.855 25.4396C121.584 25.4457 121.299 25.4488 121.04 25.4549C120.909 27.6802 121.526 30.1437 124.215 31.7524C125.046 32.2653 125.516 32.769 125.705 33.3093C126.872 33.349 128.068 33.3764 129.293 33.3764C130.648 33.3764 131.969 33.349 133.248 33.3001C133.443 32.7629 133.91 32.2653 134.731 31.7585C137.421 30.1498 138.038 27.6894 137.913 25.4701L137.916 25.464Z" fill="url(#paint3_radial_955_140)"></path>
    <path opacity="0.4" d="M134.121 38.8956C133.35 39.0849 132.551 39.1917 131.745 39.2558H131.761C131.579 39.2589 131.179 39.3413 130.495 39.3413H130.389C130.223 39.3413 130.034 39.3383 129.843 39.3322C129.715 39.3322 129.587 39.3383 129.462 39.3383C127.899 39.323 126.3 39.2528 124.807 38.8834C124.228 38.7216 123.553 38.4713 123.48 38.0256C123.396 38.5721 124.164 38.8621 124.807 39.0422C126.3 39.4115 127.899 39.4817 129.462 39.497C131.026 39.4878 132.624 39.4146 134.121 39.0513C134.763 38.8712 135.547 38.5843 135.467 38.0287C135.39 38.4805 134.699 38.7308 134.121 38.8895V38.8956Z" fill="#818181"></path>
    <path d="M134.559 25.0122H137.254C137.162 23.3546 136.653 21.8253 136.269 20.8881C135.524 18.8032 134.604 16.2298 134.559 10.6221C133.878 10.5672 133.181 10.558 132.496 10.5305C132.285 10.5244 132.074 10.5305 131.86 10.5244C131.895 16.2023 132.819 18.7909 133.571 20.8881C133.958 21.8253 134.466 23.3546 134.556 25.0122H134.559Z" fill="url(#paint4_linear_955_140)"></path>
    <path d="M124.049 21.5841C124.819 19.435 125.775 16.767 125.801 10.8754C126.402 10.7991 128.298 10.6984 131.099 10.6862H130.498C127.358 10.6862 125.241 10.7961 124.599 10.8785C124.573 16.767 123.617 19.435 122.847 21.5871C122.495 22.4449 122.054 23.7789 121.887 25.2533C122.21 25.2228 122.619 25.1953 123.099 25.1709C123.272 23.727 123.703 22.4266 124.049 21.5841Z" fill="url(#paint5_linear_955_140)"></path>
    <path d="M129.488 24.9359C126.933 24.9359 124.647 25 123.099 25.1008C122.616 25.1313 122.21 25.1679 121.887 25.2045C121.353 25.2656 121.043 25.3358 121.043 25.4121C121.043 25.6746 124.823 25.8883 129.488 25.8883C134.153 25.8883 137.932 25.6746 137.932 25.4121C137.932 25.1496 134.153 24.9359 129.488 24.9359Z" fill="url(#paint6_radial_955_140)"></path>
  </g>
  <defs>
    <radialGradient id="paint0_radial_955_140" cx="0" cy="0" r="1" gradientUnits="userSpaceOnUse" gradientTransform="translate(123.943 10.7289) scale(0.0188946 0.0183158)">
      <stop stop-color="white" stop-opacity="0.7"></stop>
      <stop offset="1" stop-color="white" stop-opacity="0"></stop>
    </radialGradient>
    <radialGradient id="paint1_radial_955_140" cx="0" cy="0" r="1" gradientUnits="userSpaceOnUse" gradientTransform="translate(135.966 10.7351) scale(0.00944593 0.0091579)">
      <stop stop-color="white" stop-opacity="0.7"></stop>
      <stop offset="1" stop-color="white" stop-opacity="0"></stop>
    </radialGradient>
    <radialGradient id="paint2_radial_955_140" cx="0" cy="0" r="1" gradientUnits="userSpaceOnUse" gradientTransform="translate(133.123 25.2534) scale(17.0041 16.2339)">
      <stop stop-color="white" stop-opacity="0.7"></stop>
      <stop offset="0.12" stop-color="white" stop-opacity="0.53"></stop>
      <stop offset="0.26" stop-color="white" stop-opacity="0.37"></stop>
      <stop offset="0.4" stop-color="white" stop-opacity="0.24"></stop>
      <stop offset="0.54" stop-color="white" stop-opacity="0.13"></stop>
      <stop offset="0.69" stop-color="white" stop-opacity="0.06"></stop>
      <stop offset="0.84" stop-color="white" stop-opacity="0.01"></stop>
      <stop offset="1" stop-color="white" stop-opacity="0"></stop>
    </radialGradient>
    <radialGradient id="paint3_radial_955_140" cx="0" cy="0" r="1" gradientUnits="userSpaceOnUse" gradientTransform="translate(132.263 25.6777) scale(9.48048 9.05105)">
      <stop stop-color="#E16F27"></stop>
      <stop offset="0.29" stop-color="#DF6E27" stop-opacity="0.99"></stop>
      <stop offset="0.44" stop-color="#D86B27" stop-opacity="0.98"></stop>
      <stop offset="0.56" stop-color="#CD6627" stop-opacity="0.95"></stop>
      <stop offset="0.66" stop-color="#BD5F27" stop-opacity="0.9"></stop>
      <stop offset="0.76" stop-color="#A95627" stop-opacity="0.85"></stop>
      <stop offset="0.84" stop-color="#904A27" stop-opacity="0.78"></stop>
      <stop offset="0.92" stop-color="#723D27" stop-opacity="0.7"></stop>
      <stop offset="1" stop-color="#502E27" stop-opacity="0.6"></stop>
    </radialGradient>
    <linearGradient id="paint4_linear_955_140" x1="134.559" y1="13.632" x2="134.559" y2="24.5207" gradientUnits="userSpaceOnUse">
      <stop stop-color="#E6E6E6"></stop>
      <stop offset="0.2" stop-color="#E6E6E6" stop-opacity="0.99"></stop>
      <stop offset="0.33" stop-color="white" stop-opacity="0.23"></stop>
      <stop offset="0.45" stop-color="white" stop-opacity="0.89"></stop>
      <stop offset="0.55" stop-color="white" stop-opacity="0.81"></stop>
      <stop offset="0.65" stop-color="white" stop-opacity="0.7"></stop>
      <stop offset="0.74" stop-color="white" stop-opacity="0.57"></stop>
      <stop offset="0.83" stop-color="white" stop-opacity="0.41"></stop>
      <stop offset="0.91" stop-color="white" stop-opacity="0.22"></stop>
      <stop offset="0.99" stop-color="white" stop-opacity="0.02"></stop>
      <stop offset="1" stop-color="white" stop-opacity="0"></stop>
    </linearGradient>
    <linearGradient id="paint5_linear_955_140" x1="126.492" y1="11.6019" x2="126.492" y2="25.1373" gradientUnits="userSpaceOnUse">
      <stop stop-color="#C1C1C1"></stop>
      <stop offset="0.2" stop-color="#C1C1C1" stop-opacity="0.99"></stop>
      <stop offset="0.33" stop-color="#C1C1C1" stop-opacity="0.95"></stop>
      <stop offset="0.45" stop-color="#C1C1C1" stop-opacity="0.89"></stop>
      <stop offset="0.55" stop-color="#C1C1C1" stop-opacity="0.45"></stop>
      <stop offset="0.65" stop-color="#C1C1C1" stop-opacity="0.7"></stop>
      <stop offset="0.74" stop-color="#C1C1C1" stop-opacity="0.57"></stop>
      <stop offset="0.83" stop-color="#C1C1C1" stop-opacity="0.41"></stop>
      <stop offset="0.91" stop-color="#C1C1C1" stop-opacity="0.22"></stop>
      <stop offset="0.99" stop-color="#C1C1C1" stop-opacity="0.02"></stop>
      <stop offset="1" stop-color="#C1C1C1" stop-opacity="0"></stop>
    </linearGradient>
    <radialGradient id="paint6_radial_955_140" cx="0" cy="0" r="1" gradientUnits="userSpaceOnUse" gradientTransform="translate(128.791 21.5644) scale(7.35097 9.05322)">
      <stop stop-color="#DE6D26"></stop>
      <stop offset="0.01" stop-color="#D66A26"></stop>
      <stop offset="0.02" stop-color="#A65325"></stop>
      <stop offset="0.36" stop-color="#A35125"></stop>
      <stop offset="0.54" stop-color="#9B4E25"></stop>
      <stop offset="0.69" stop-color="#8D4825"></stop>
      <stop offset="0.82" stop-color="#7A4026"></stop>
      <stop offset="0.94" stop-color="#613526"></stop>
      <stop offset="1" stop-color="#502E27"></stop>
    </radialGradient>
    <clipPath id="clip0_955_140">
      <rect width="250" height="29" fill="white" transform="translate(0 10.5)"></rect>
    </clipPath>
  </defs>
</svg>
