<?xml version="1.0" encoding="UTF-8"?>
<svg xmlns="http://www.w3.org/2000/svg" width="240" height="50" viewBox="0 0 240 50" fill="none">
  <path d="M179.589 32.3829C180.883 32.3829 182.038 33.2857 182.038 34.6904C182.038 36.1006 180.884 37.0106 179.589 37.0106C178.296 37.0106 177.14 36.1006 177.14 34.6904C177.14 33.2857 178.294 32.3829 179.589 32.3829ZM179.589 36.514C180.577 36.514 181.387 35.7467 181.387 34.6886C181.387 33.6378 180.577 32.8759 179.589 32.8759C178.588 32.8759 177.791 33.636 177.791 34.6886C177.789 35.7467 178.588 36.514 179.589 36.514ZM178.638 33.3904H179.645C180.315 33.3904 180.691 33.5945 180.691 34.1578C180.691 34.6345 180.386 34.8186 179.989 34.8511L180.704 35.9832H180.149L179.5 34.8764H179.168V35.9832H178.64V33.3904H178.638ZM179.168 34.4738H179.639C179.939 34.4738 180.162 34.4304 180.162 34.1145C180.162 33.8364 179.857 33.7931 179.613 33.7931H179.167V34.4738H179.168Z" fill="#101010"></path>
  <path d="M182.036 17.8102H175.556V37.0087H168.205V17.8102H161.83V12.9912H182.035V17.8102H182.036Z" fill="#101010"></path>
  <path d="M78.4823 30.1909C78.4823 32.0651 77.9649 33.7045 76.5375 35.1075C75.1118 36.505 73.4461 37.0105 71.5422 37.0105H57.9636V12.9912H71.5441C73.4648 12.9912 75.136 13.495 76.5542 14.8888C77.9705 16.2809 78.4842 17.924 78.4842 19.8126C78.4842 21.6723 77.8533 23.467 76.5951 24.8122C77.8533 26.1736 78.4842 27.7191 78.4842 29.4489V30.1909H78.4823ZM71.1309 20.1448C71.1309 19.5201 70.9336 18.9333 70.4628 18.4675C69.9919 18.0034 69.4001 17.8102 68.7692 17.8102H65.315V22.6257H68.7692C69.4336 22.6257 70.0347 22.4162 70.487 21.9215C70.943 21.4214 71.1309 20.8039 71.1309 20.1448ZM71.1309 29.7486C71.1309 29.1311 70.9336 28.5533 70.4628 28.0965C69.9919 27.6379 69.4001 27.4447 68.7692 27.4447H65.315V32.1969H68.7692C69.4336 32.1969 70.0347 31.9893 70.487 31.4964C70.943 31.0089 71.1309 30.3986 71.1309 29.7486Z" fill="#101010"></path>
  <path d="M114.394 12.9912C112.498 12.9912 111.785 14.5638 111.575 15.4684C111.303 16.633 108.988 26.1772 108.941 26.3758C108.895 26.179 106.578 16.6348 106.306 15.4684C106.096 14.5638 105.383 12.9912 103.486 12.9912C102.755 12.9912 98.3143 12.9912 98.3143 12.9912L105.435 37.0105H112.449L119.568 12.9912C119.568 12.9912 115.126 12.9912 114.394 12.9912Z" fill="#101010"></path>
  <path d="M97.5159 17.8229V12.9912H83.2598C81.1065 12.9912 79.3608 14.6848 79.3608 16.7738V33.217C79.3608 35.3061 81.1065 36.9997 83.2598 36.9997H84.9181C84.9553 37.0015 84.9906 37.0105 85.0279 37.0105H97.5178V32.1807H86.714V27.4447H97.1251V22.6257H86.714V17.8229H97.5159Z" fill="#101010"></path>
  <path d="M160.602 17.8229V12.9912H146.346C144.193 12.9912 142.447 14.6848 142.447 16.7738V33.217C142.447 35.3061 144.193 36.9997 146.346 36.9997H148.004C148.041 37.0015 148.077 37.0105 148.114 37.0105H160.604V32.1807H149.8V27.4447H160.211V22.6257H149.8V17.8229H160.602Z" fill="#101010"></path>
  <path d="M133.99 12.9912V26.1663C132.901 24.0195 128.464 15.2554 128.224 14.7625C127.872 14.0366 127.011 12.9912 125.22 12.9912H120.48V37.0105H127.558V24.3066C127.558 24.3066 132.79 34.694 133.061 35.2519C133.413 35.9795 134.163 37.0105 136.119 37.0105C137.115 37.0105 141.071 37.0105 141.071 37.0105V12.9912H133.99Z" fill="#101010"></path>
</svg>
