<?xml version="1.0" encoding="UTF-8"?>
<svg xmlns="http://www.w3.org/2000/svg" width="189" height="64" viewBox="0 0 189 64" fill="none">
  <g clip-path="url(#clip0_31_12)">
    <path d="M121.96 27.46L107.76 23.91L118.28 13.73L104.21 17.75L108.23 3.68L98.05 14.2L94.5 0L90.95 14.2L80.77 3.68L84.79 17.75L70.72 13.73L81.24 23.91L67.04 27.46H121.96Z" fill="black"></path>
    <path d="M4.12006 46.71V62.78H0V37.32L17.2 53.66V37.6H21.32V63.06L4.12006 46.71Z" fill="black"></path>
    <path d="M25.39 50.2C25.3753 48.505 25.6985 46.824 26.3408 45.2552C26.983 43.6865 27.9313 42.2614 29.1304 41.0633C30.3295 39.8651 31.7553 38.9179 33.3245 38.2769C34.8938 37.6359 36.575 37.314 38.27 37.33C39.965 37.3126 41.6463 37.6336 43.2156 38.2743C44.7849 38.9149 46.2107 39.8622 47.4092 41.0608C48.6078 42.2594 49.5552 43.6851 50.1958 45.2544C50.8364 46.8237 51.1574 48.5051 51.14 50.2C51.1574 51.895 50.8364 53.5763 50.1958 55.1456C49.5552 56.715 48.6078 58.1406 47.4092 59.3392C46.2107 60.5378 44.7849 61.4851 43.2156 62.1258C41.6463 62.7664 39.965 63.0874 38.27 63.07C36.575 63.086 34.8938 62.7641 33.3245 62.1231C31.7553 61.4822 30.3295 60.5349 29.1304 59.3368C27.9313 58.1386 26.983 56.7135 26.3408 55.1448C25.6985 53.576 25.3753 51.8951 25.39 50.2ZM46.95 50.2C46.9944 49.0331 46.8027 47.8693 46.3863 46.7784C45.9699 45.6874 45.3375 44.6918 44.5268 43.8513C43.7162 43.0108 42.7442 42.3427 41.669 41.8871C40.5938 41.4315 39.4377 41.1978 38.27 41.2C37.1015 41.1965 35.9442 41.4292 34.8679 41.8842C33.7916 42.3392 32.8183 43.0071 32.0066 43.8477C31.195 44.6884 30.5616 45.6844 30.1446 46.776C29.7276 47.8676 29.5355 49.0323 29.58 50.2C29.5369 51.3674 29.7299 52.5314 30.1475 53.6224C30.565 54.7134 31.1984 55.7089 32.0098 56.5492C32.8212 57.3896 33.7939 58.0575 34.8696 58.513C35.9453 58.9685 37.1019 59.2022 38.27 59.2C39.4373 59.2008 40.5928 58.9661 41.6673 58.5101C42.7419 58.054 43.7133 57.3858 44.5237 56.5456C45.334 55.7054 45.9666 54.7104 46.3835 53.6201C46.8004 52.5297 46.993 51.3665 46.95 50.2Z" fill="black"></path>
    <path d="M51.9399 37.6H56.16L61.16 52.1L67.41 37.32L73.65 52.1L78.65 37.6H82.91L74.22 63.06L67.45 46.75L60.67 63.06L51.9399 37.6Z" fill="black"></path>
    <path d="M92.61 37.32L104.91 62.78H100.53L97.86 57.2H87.33L84.7 62.81H80.3L92.61 37.32ZM89.1 53.42H96.1L92.63 45.97L89.1 53.42Z" fill="black"></path>
    <path d="M107.77 37.6H115.77C123.29 37.6 128.96 43.06 128.96 50.19C128.96 57.32 123.29 62.78 115.77 62.78H107.77V37.6ZM115.77 58.95C121.19 58.95 124.77 55.15 124.77 50.19C124.77 45.23 121.18 41.43 115.77 41.43H111.9V58.95H115.77Z" fill="black"></path>
    <path d="M141.18 37.32L153.53 62.78H149.1L146.42 57.2H135.89L133.27 62.81H128.87L141.18 37.32ZM137.67 53.42H144.67L141.2 45.97L137.67 53.42Z" fill="black"></path>
    <path d="M158.73 52.2L149.47 37.63H154.3L160.78 48.02L167.27 37.63H172.13L162.84 52.2V62.81H158.73V52.2Z" fill="black"></path>
    <path d="M172.53 58.77L175.65 56.15C176.249 57.0227 177.04 57.7467 177.962 58.2667C178.884 58.7867 179.913 59.0888 180.97 59.15C183.41 59.15 184.83 58.05 184.83 56.24C184.83 54.43 183.66 53.24 181.18 52.16L179.18 51.31C175.39 49.65 173.51 47.24 173.51 43.97C173.51 39.97 177.16 37.31 180.99 37.31C182.334 37.2563 183.672 37.5167 184.897 38.0704C186.123 38.6242 187.202 39.4561 188.05 40.5L185.21 43.44C184.741 42.7462 184.107 42.1794 183.366 41.7902C182.624 41.4011 181.798 41.2017 180.96 41.21C179.25 41.21 177.62 42.21 177.62 43.94C177.62 45.67 178.76 46.74 181.27 47.8L183.27 48.69C186.71 50.18 189.05 52.38 189.05 55.89C189.05 60.14 185.9 63.05 181.05 63.05C179.381 63.1326 177.72 62.7818 176.227 62.0317C174.733 61.2817 173.46 60.158 172.53 58.77Z" fill="black"></path>
  </g>
  <defs>
    <clipPath id="clip0_31_12">
      <rect width="189" height="63.06" fill="white"></rect>
    </clipPath>
  </defs>
</svg>
