<svg width="190" height="64" viewBox="0 0 190 64" fill="none" xmlns="http://www.w3.org/2000/svg">
<g clip-path="url(#clip0_1361_778)">
<mask id="mask0_1361_778" style="mask-type:luminance" maskUnits="userSpaceOnUse" x="15" y="4" width="160" height="55">
<path d="M175 4.91016H15V58.2943H175V4.91016Z" fill="white"/>
</mask>
<g mask="url(#mask0_1361_778)">
<path d="M118.247 28.1567L106.225 25.1514L115.131 16.5334L103.22 19.9366L106.623 8.0255L98.0053 16.9313L95 4.91016L91.9947 16.9313L83.3767 8.0255L86.7799 19.9366L74.8688 16.5334L83.7746 25.1514L71.7534 28.1567H118.247Z" fill="white"/>
<path d="M18.4879 44.4531V58.0573H15V36.5039L29.5608 50.3367V36.7409H33.0487V58.2944L18.4879 44.4531Z" fill="white"/>
<path d="M36.4942 47.4075C36.4817 45.9726 36.7553 44.5495 37.2991 43.2214C37.8428 41.8934 38.6455 40.687 39.6607 39.6728C40.6758 38.6584 41.8828 37.8565 43.2112 37.3139C44.5397 36.7712 45.963 36.4987 47.3979 36.5123C48.8328 36.4976 50.2561 36.7693 51.5846 37.3117C52.9131 37.854 54.1202 38.6559 55.1348 39.6706C56.1495 40.6853 56.9515 41.8923 57.4938 43.2208C58.0361 44.5493 58.3079 45.9727 58.2931 47.4075C58.3079 48.8424 58.0361 50.2658 57.4938 51.5943C56.9515 52.9229 56.1495 54.1297 55.1348 55.1444C54.1202 56.1591 52.9131 56.961 51.5846 57.5034C50.2561 58.0457 48.8328 58.3175 47.3979 58.3028C45.963 58.3163 44.5397 58.0438 43.2112 57.5012C41.8828 56.9586 40.6758 56.1566 39.6607 55.1424C38.6455 54.128 37.8428 52.9216 37.2991 51.5936C36.7553 50.2655 36.4817 48.8425 36.4942 47.4075ZM54.746 47.4075C54.7836 46.4197 54.6213 45.4344 54.2688 44.5109C53.9163 43.5873 53.381 42.7445 52.6946 42.033C52.0084 41.3214 51.1856 40.7558 50.2753 40.3701C49.3651 39.9845 48.3864 39.7866 47.3979 39.7885C46.4087 39.7855 45.429 39.9825 44.5178 40.3677C43.6066 40.7529 42.7827 41.3183 42.0955 42.0299C41.4085 42.7416 40.8723 43.5848 40.5192 44.5089C40.1662 45.433 40.0036 46.419 40.0413 47.4075C40.0048 48.3958 40.1682 49.3812 40.5217 50.3048C40.8751 51.2284 41.4113 52.0711 42.0982 52.7825C42.7851 53.494 43.6086 54.0594 44.5192 54.445C45.4299 54.8306 46.409 55.0284 47.3979 55.0266C48.3861 55.0272 49.3643 54.8286 50.2739 54.4425C51.1836 54.0564 52.006 53.4907 52.692 52.7795C53.378 52.0682 53.9135 51.2259 54.2665 50.3028C54.6194 49.3798 54.7824 48.395 54.746 47.4075Z" fill="white"/>
<path d="M58.9703 36.7409H62.5428L66.7757 49.0161L72.0667 36.5039L77.3492 49.0161L81.582 36.7409H85.1884L77.8317 58.2944L72.1005 44.487L66.3608 58.2944L58.9703 36.7409Z" fill="white"/>
<path d="M93.4 36.5039L103.813 58.0573H100.105L97.8444 53.3335H88.9301L86.7037 58.0827H82.9788L93.4 36.5039ZM90.4286 50.1335H96.3545L93.4169 43.8267L90.4286 50.1335Z" fill="white"/>
<path d="M106.234 36.7407H113.006C119.373 36.7407 124.173 41.3629 124.173 47.3989C124.173 53.4349 119.373 58.0571 113.006 58.0571H106.234V36.7407ZM113.006 54.8148C117.595 54.8148 120.625 51.5979 120.625 47.3989C120.625 43.2 117.586 39.9831 113.006 39.9831H109.73V54.8148H113.006Z" fill="white"/>
<path d="M134.517 36.5039L144.973 58.0573H141.222L138.953 53.3335H130.039L127.821 58.0827H124.096L134.517 36.5039ZM131.546 50.1335H137.472L134.534 43.8267L131.546 50.1335Z" fill="white"/>
<path d="M149.375 49.1007L141.535 36.7664H145.624L151.11 45.5621L156.604 36.7664H160.719L152.854 49.1007V58.0828H149.375V49.1007Z" fill="white"/>
<path d="M161.057 54.6625L163.698 52.4445C164.205 53.1833 164.875 53.7963 165.656 54.2365C166.436 54.6767 167.307 54.9324 168.202 54.9842C170.268 54.9842 171.47 54.053 171.47 52.5207C171.47 50.9885 170.479 49.9811 168.38 49.0668L166.687 48.3472C163.478 46.9419 161.887 44.9017 161.887 42.1334C161.887 38.7472 164.977 36.4953 168.219 36.4953C169.357 36.4499 170.49 36.6703 171.527 37.1391C172.564 37.6079 173.478 38.3121 174.196 39.1959L171.792 41.6848C171.394 41.0974 170.858 40.6176 170.23 40.2881C169.602 39.9587 168.903 39.7899 168.194 39.7969C166.746 39.7969 165.366 40.6435 165.366 42.108C165.366 43.5726 166.331 44.4784 168.456 45.3758L170.149 46.1292C173.061 47.3906 175.042 49.253 175.042 52.2244C175.042 55.8223 172.376 58.2858 168.27 58.2858C166.857 58.3557 165.451 58.0588 164.187 57.4238C162.922 56.7888 161.844 55.8376 161.057 54.6625Z" fill="white"/>
</g>
</g>
<defs>
<clipPath id="clip0_1361_778">
<rect width="160" height="54.1799" fill="white" transform="translate(15 4.91016)"/>
</clipPath>
</defs>
</svg>
