<?xml version="1.0" encoding="UTF-8"?>
<svg xmlns="http://www.w3.org/2000/svg" width="60" height="69" viewBox="0 0 60 69" fill="none">
  <g clip-path="url(#clip0_190_95)">
    <path d="M30.0106 9.6912C46.5083 9.71554 60.1021 23.174 60 39.3839C59.8979 55.7921 46.3992 69.0905 29.9437 69C13.4002 68.9061 0.00704252 55.6564 2.74367e-06 39.363C-0.00703703 23.0696 13.534 9.66685 30.0106 9.6912ZM58.3351 39.4048C58.3703 24.0123 45.6318 11.4131 30.0176 11.3992C22.5097 11.4074 15.3109 14.3549 9.99707 19.5966C4.68324 24.8382 1.68724 31.9468 1.6649 39.3665C1.6649 54.7311 14.3083 67.2434 29.9366 67.3686C45.403 67.4904 58.2928 54.7833 58.3351 39.4048Z" fill="black"></path>
    <path d="M27.3601 5.02641C27.3601 5.7569 27.3601 6.41781 27.3601 7.08221C27.3777 7.64225 27.0926 8.08403 26.5787 8.00402C26.3766 7.9368 26.1939 7.8223 26.0462 7.67028C25.8985 7.51826 25.7901 7.33322 25.7304 7.13091C25.6493 6.41362 25.6364 5.69042 25.6917 4.97075C24.9278 4.97075 24.2591 4.97075 23.5797 4.97075C22.8476 4.98814 22.4921 4.64725 22.4921 3.92719C22.4921 3.02973 22.4921 2.13227 22.4921 1.23481C22.4921 0.267778 22.742 0.010375 23.7557 0.00341797C25.9521 0.00341797 28.152 0.00341797 30.3485 0.00341797C32.2562 0.00341797 34.1605 0.00341797 36.0647 0.00341797C37.2439 0.00341797 37.4727 0.22952 37.4727 1.36004C37.4727 2.22619 37.4727 3.0993 37.4727 3.96545C37.4727 4.66116 37.1454 4.97422 36.4555 4.96727C35.7656 4.96031 35.1179 4.96727 34.3013 4.96727C34.3013 5.6421 34.3013 6.26823 34.3013 6.88741C34.2802 7.42658 34.1922 8.00402 33.4917 8.01446C32.7913 8.02489 32.5871 7.49963 32.5941 6.88046C32.6012 6.26128 32.5941 5.67341 32.5941 5.02293L27.3601 5.02641ZM24.1922 3.22801H35.7691V1.72181H24.1922V3.22801Z" fill="black"></path>
    <path d="M3.73107 16.1926C4.23793 16.6483 4.78704 17.1562 5.3643 17.6571C5.79373 18.0362 5.96267 18.4571 5.5262 18.9267C5.08973 19.3963 4.65329 19.2433 4.2485 18.8363C3.52692 18.1128 2.80535 17.3892 2.06969 16.6831C1.59099 16.2274 1.59098 15.7856 2.04505 15.3334C3.34271 14.0348 4.64624 12.7419 5.95564 11.4549C6.03927 11.3493 6.14611 11.2639 6.26807 11.2052C6.39004 11.1465 6.52395 11.116 6.65962 11.116C6.79528 11.116 6.92917 11.1465 7.05113 11.2052C7.1731 11.2639 7.27996 11.3493 7.36359 11.4549C8.06757 12.1506 8.79619 12.8463 9.47552 13.542C9.82751 13.9316 10.1478 14.4116 9.60224 14.8986C9.05665 15.3856 8.63426 15.0969 8.23299 14.6899C7.72613 14.1716 7.22279 13.6463 6.74409 13.1559L3.73107 16.1926Z" fill="black"></path>
    <path d="M54.8152 39.3769C54.787 52.8353 43.4847 63.9561 29.9542 63.8344C16.2267 63.7161 5.19885 52.8075 5.18477 39.3699C5.17069 25.9324 16.3991 14.8428 30.007 14.8533C43.6149 14.8637 54.8433 25.9393 54.8152 39.3769ZM6.87783 39.2864C6.8819 45.3089 9.28438 51.0878 13.5658 55.3736C17.8472 59.6594 23.6636 62.1077 29.7571 62.189C42.5202 62.3316 52.9884 52.1674 53.1221 39.4186C53.2594 26.9585 42.9144 16.5334 30.0669 16.5195C17.3354 16.5056 7.05031 26.4263 6.87783 39.2864Z" fill="black"></path>
    <path d="M29.9578 35.7244C30.9305 35.718 31.866 36.0937 32.5584 36.7689C33.2509 37.444 33.6436 38.3634 33.6501 39.3247C33.6567 40.286 33.2765 41.2105 32.5933 41.8949C31.9101 42.5792 30.9798 42.9672 30.007 42.9737C29.0343 42.9802 28.0988 42.6045 27.4064 41.9293C26.7139 41.2541 26.3212 40.3347 26.3147 39.3734C26.3082 38.4121 26.6883 37.4876 27.3715 36.8033C28.0547 36.119 28.985 35.7309 29.9578 35.7244ZM31.9571 39.3108C31.9466 38.9272 31.8218 38.5552 31.5982 38.2414C31.3746 37.9277 31.0622 37.6861 30.7002 37.5472C30.3382 37.4083 29.9428 37.3781 29.5635 37.4605C29.1843 37.5429 28.8381 37.7341 28.5684 38.0102C28.2987 38.2863 28.1175 38.635 28.0477 39.0125C27.9778 39.39 28.0223 39.7795 28.1756 40.1321C28.3289 40.4847 28.5842 40.7847 28.9094 40.9944C29.2346 41.2041 29.6152 41.3142 30.0035 41.311C30.266 41.3106 30.5256 41.2582 30.7671 41.1567C31.0086 41.0552 31.227 40.9067 31.4093 40.7201C31.5915 40.5335 31.7339 40.3125 31.828 40.0704C31.9222 39.8283 31.966 39.57 31.9571 39.3108Z" fill="black"></path>
    <path d="M44.2204 26.2351C44.054 26.501 43.8682 26.7545 43.6642 26.9934C40.9023 29.7391 38.1321 32.4849 35.3538 35.2306C34.9419 35.6341 34.4844 36.0272 33.9458 35.4706C33.4073 34.914 33.7804 34.4723 34.1957 34.0792C36.9659 31.3416 39.729 28.5935 42.5273 25.8803C42.8337 25.6469 43.2201 25.5408 43.6044 25.5846C43.8121 25.5742 43.9881 25.9673 44.2204 26.2351Z" fill="black"></path>
    <path d="M30.8553 57.413V59.5001C30.8553 60.0706 30.6054 60.4775 30.007 60.4984C29.4087 60.5193 29.1588 60.0566 29.1517 59.5175C29.1517 58.1261 29.1341 56.7347 29.1517 55.3432C29.1517 54.8145 29.3488 54.3484 30 54.3484C30.6512 54.3484 30.8412 54.7762 30.8518 55.3259C30.88 56.025 30.8518 56.7207 30.8553 57.413Z" fill="black"></path>
    <path d="M11.6895 40.1909C10.9855 40.1909 10.2816 40.1909 9.57758 40.1909C9.01792 40.1909 8.56035 39.9196 8.57794 39.3283C8.59554 38.7369 9.04257 38.5247 9.63391 38.5317C11.0419 38.5456 12.4498 38.5456 13.8578 38.5317C14.4139 38.5317 14.8011 38.7717 14.8469 39.2969C14.9032 39.9057 14.4667 40.1666 13.8965 40.177C13.1679 40.177 12.4357 40.177 11.7036 40.177L11.6895 40.1909Z" fill="black"></path>
    <path d="M30.8553 21.3651C30.8553 22.0295 30.8553 22.6939 30.8553 23.3583C30.8553 23.9044 30.6265 24.3532 30.007 24.3566C29.3875 24.3601 29.1587 23.9114 29.1552 23.3618C29.1552 21.9704 29.1552 20.579 29.1552 19.2049C29.1552 18.6588 29.377 18.2031 30 18.2031C30.623 18.2031 30.8412 18.6519 30.8518 19.198C30.8518 19.9215 30.8518 20.6416 30.8518 21.3651H30.8553Z" fill="black"></path>
    <path d="M48.2999 40.17H46.188C45.6283 40.17 45.1602 39.9683 45.1602 39.3595C45.1602 38.7508 45.5755 38.5247 46.1598 38.5247C47.5677 38.5247 48.9757 38.5247 50.3625 38.5247C50.9398 38.5247 51.3833 38.7473 51.3974 39.3352C51.4115 39.923 50.9609 40.1665 50.3907 40.17H48.2999Z" fill="black"></path>
  </g>
  <defs>
    <clipPath id="clip0_190_95">
      <rect width="60" height="69" fill="white"></rect>
    </clipPath>
  </defs>
</svg>
